<mxfile host="Electron" modified="2025-02-08T18:52:17.929Z" agent="Mozilla/5.0 (Windows NT 10.0; Win64; x64) AppleWebKit/537.36 (KHTML, like Gecko) draw.io/24.1.0 Chrome/120.0.6099.109 Electron/28.1.0 Safari/537.36" etag="rkPy6-uIq7ZfolHpvQs3" version="24.1.0" type="device">
  <diagram name="Architecture" id="Kn9PWSFurm0kHup8gz9t">
    <mxGraphModel dx="1434" dy="836" grid="1" gridSize="10" guides="1" tooltips="1" connect="1" arrows="1" fold="1" page="1" pageScale="1" pageWidth="827" pageHeight="1169" math="0" shadow="0">
      <root>
        <mxCell id="0" />
        <mxCell id="1" parent="0" />
        <mxCell id="EMlEh1vvEXm4IZdUszmN-1" value="" style="rounded=1;whiteSpace=wrap;html=1;dashed=1;strokeColor=default;strokeWidth=1;fontSize=12;fillColor=none;sketch=1;curveFitting=1;jiggle=2;arcSize=2;" vertex="1" parent="1">
          <mxGeometry x="40" y="40" width="760" height="570" as="geometry" />
        </mxCell>
        <mxCell id="EMlEh1vvEXm4IZdUszmN-13" value="" style="rounded=1;whiteSpace=wrap;html=1;dashed=1;strokeColor=default;strokeWidth=1;fontSize=12;fillColor=none;sketch=1;curveFitting=1;jiggle=2;arcSize=2;" vertex="1" parent="1">
          <mxGeometry x="180" y="80" width="610" height="472.5" as="geometry" />
        </mxCell>
        <mxCell id="EMlEh1vvEXm4IZdUszmN-84" value="" style="rounded=1;whiteSpace=wrap;html=1;dashed=1;strokeColor=default;strokeWidth=1;fontSize=12;fillColor=none;sketch=1;curveFitting=1;jiggle=2;arcSize=2;" vertex="1" parent="1">
          <mxGeometry x="190" y="120" width="200" height="420" as="geometry" />
        </mxCell>
        <mxCell id="EMlEh1vvEXm4IZdUszmN-56" value="" style="rounded=1;whiteSpace=wrap;html=1;dashed=1;strokeColor=default;strokeWidth=1;fontSize=12;fillColor=none;sketch=1;curveFitting=1;jiggle=2;arcSize=2;" vertex="1" parent="1">
          <mxGeometry x="60" y="80.5" width="110" height="110" as="geometry" />
        </mxCell>
        <mxCell id="EMlEh1vvEXm4IZdUszmN-3" value="" style="rounded=1;whiteSpace=wrap;html=1;dashed=1;strokeColor=default;strokeWidth=1;fontSize=12;fillColor=none;sketch=1;curveFitting=1;jiggle=2;arcSize=2;" vertex="1" parent="1">
          <mxGeometry x="60" y="202.5" width="110" height="350" as="geometry" />
        </mxCell>
        <mxCell id="EMlEh1vvEXm4IZdUszmN-2" value="SmartReplenishment - Distributed Tracing with MQTTnet" style="text;html=1;align=center;verticalAlign=middle;whiteSpace=wrap;rounded=0;fontSize=15;fontStyle=1" vertex="1" parent="1">
          <mxGeometry x="39.75" y="40" width="416.5" height="40" as="geometry" />
        </mxCell>
        <mxCell id="EMlEh1vvEXm4IZdUszmN-5" value="" style="shape=image;verticalLabelPosition=bottom;labelBackgroundColor=default;verticalAlign=top;aspect=fixed;imageAspect=0;image=data:image/png,iVBORw0KGgoAAAANSUhEUgAAAXwAAAF8CAYAAADM5wDKAAAACXBIWXMAAAsTAAALEwEAmpwYAAAz30lEQVR4nO3dd7icRdnH8W9IAiSQEEjoxdBEUClKUaooxYJ0sIAIiCAqiK8FFEUERSn6gqiIoIAiAgICSpPeOwLSW0KJdAgJkEAS8v5xn/Nms2fu2Z05e3afPfP7XFeuJDN7Zp/T7meeKfcMmT17NiIiMvjN0+kLEBGR9lDAFxEphAK+iEghFPBFRAqhgC8iUggFfBGRQijgi4gUQgFfRKQQCvgiIoVQwBcRKYQCvohIIRTwRUQKoYAvIlIIBXwRkUIo4IuIFEIBX0SkEAr4IiKFUMAXESmEAr6ISCEU8EVECqGALyJSCAV8EZFCKOCLiBRCAV9EpBAK+CIihVDAFxEphAK+iEghFPBFRAqhgC8iUggFfBGRQijgi4gUQgFfRKQQCvgiIoVQwBcRKYQCvohIIRTwRUQKoYAvIlIIBXwRkUIo4IuIFEIBX0SkEAr4IiKFUMAXESmEAr6ISCEU8EVECqGALyJSCAV8EZFCKOCLiBRCAV9EpBAK+CIihVDAFxEphAK+iEghFPBFRAqhgC8iUggFfBGRQijgi4gUQgFfRKQQCvgiIoVQwBcRKYQCvohIIRTwRUQKoYAvIlIIBXwRkUIo4IuIFEIBX0SkEAr4IiKFUMAXESmEAr6ISCEU8EVECqGALyJSCAV8EZFCKOCLiBRCAV9EpBAK+CIihVDAFxEphAK+iEghFPBFRAqhgC8iUggFfBGRQijgi4gUQgFfRKQQCvgiIoUY1ukLkLBhw+dt11u9GzgQGA2cDlzQrjeWtjkY+DBwC/CTdrzhzBlvt+NtJNGQ2bNnd/oaJKBNAX914A5geE3Zl4GT2/Hm0haXAlvW/P9GYMOBflMF/GpSwK+oNgT8ccATwKhA3ULAlIG+ABlw2wPnBsrPA3YYyDdWwK8mjeGX6wbCwR5g7XZeiAyYTzjl2wNHt/NCpBoU8Mt0EbBKpH5quy5EBtSbkbpvA7u060KkGhTwy3ME8MlI/QTgrjZdiwys0xvU/xkY0Y4LkWpQwC/LFsD3IvUvAhsBs9pzOTLAbge+EKkfAtzZ87cUQAG/HAsB50fq3wHWBya15WqkXU4Hvh+pXxX4e5uuRTpMAb8clxB/fN8CeKxN1yLt9TPgvkj9NsDX23Qt0kEK+GX4IbbxxnM6cGWbrkU6Y2Pik7jHY5vwZBDTOvyKauE6/DWAuyP1jwErt+rNpNI+BNwcqX8CWLEVb6R1+NWkHv7g989I3Sxg03ZdiHTcLcABkfoVgOPacynSCQr4g9s/gWUi9R8GnmnTtUg1HIeN6Xv2R+vzBy0N6VRUC4Z0dsXWWXv2BX7X3zeRrnUzNsQTMgVb1ZVNQzrVpB7+4PWHSN1l9D/YfxCbH5D2GoYF6kX62c6ngJlO3Wi0amdQUsAfnL4MeI8I04Ht+tn+n7Asm3djaRrm72d70pwNsEn2m7EJ1j360dYrwD6R+uPpZy9fqkdDOhXVjyGd4cCrwAJO/bb0L+f96fQd4z0X2LEfbUpjCwMv0beTtgOW/TLXi1jm1JDzyewcaEinmtTDH3x+gx/sH6N/wf4wwhN6OwBL96NdaWw3wr+v5+KPxTdj50jdttjuaxkkFPAHl02w4RzPNv1o+3BsA5env2PKEhe7od4MrJvZ7tVYQj3PBShODBr6Rg4up0Xqfgo8kNnuTsAPIvWvAQ9nti3NuahB/VXAmMy2DwaedurGYU92MghoDL+iMsbwd8MP+C8Ci2VeyngsZXLM9igBVzucjd18PVcAm2e2vSFwfaR+YWBys41pDL+a1MMfPH4ZqduzH+3+q0H9wSjYt8vO2Oooz2bAxzLbvgE7/9ZzVGa7UiHq4VdUYg9/P+BXTt3t5I/v7kL8EI3TgN0z25Y8I7EnLu+JbRowtufvVEsC/43ULwE830xD6uFXk3r4g8Phkbrc3v0ixDdv3YyCfSe8SfzEshHkL9N8lngunZ9ktisVoYDf/X6Cv0HmN8TzoMfcCMzn1L2GjflKZ9wJ/E+k/uPEOwExB+D38ncHhma2KxWggN/dhuMfWTiLeFCIORJ4T6T+89gJWdI5/4tN4np+ALwvs23vZ2oY8d25UnEaw6+oJsfwNwaudeqOBA7KeOsViZ98dQLw1Yx2ZWA8jz+e/wiwSkabI4E3nLrnsLH+KI3hV5N6+N3tAKf8HfIf6WO9xoko2FfNpyJ17yYvCdqbwF+duiXo3wY+6SD18CuqiR7+4lhvK+QmLNFWqp2BsyL17wPuz2hXBtZRwHecunewDVlTE9tcHkvQFnIHsE7sg9XDryb18LvXtyJ1R2e2GUuZ/DP6F+y3w1b9HA+8vx/tDCa7AecAvyZ/lyzAd7Gnr5B5iO/R8EzADr4PWZv8+QHpIPXwK6pBD3808DI2iVbvbmCtjLc8GfiSU3cL8UPQGzmYvkv6dsQSf5XqAmDrmv+/jG2auiezvfHEd0SPwVZXpYj18i8hsjxUPfxqUg+/O+1OONgDHJrR3ij8YA/wmYw2e32W8Prt44Eh/Wi3m23K3MEebLPU9eT39CcCP47UH5nR5gTssJyQT2Dj+dJFFPC7075O+UvkpT/ePVJ3LPBURptgQzfe5N+SwKKZ7XY7b+fzKPxVV82IpT/Yh7x8SrHzb/fKaE86SAG/+6yOv0b+hMw2D3XK38HGh3MMB66M1M8AXs9su9s9GalbHTgls903gd9H6mPB23MtfibN2FOhVJACfveJHWuXE/C/hJ/L/gIsMOe4gHgP/kQsQJXoQuygcM/u2Oa2HLHJ/D3JGzL6rVM+HpvAlS6hgN99vEBwDZYLJVVs3PfAjPbA1n5/IlJ/B/4eghK8SeOsln8Blsto+3Xi8zg/ymgzllOpP5lYpc0U8LvLVvjjsDmJrfbCP0npOODRjDY3wSZkPbdiY9izMtoeTO6g8dGE3rLIRn4MPOPUHUD6ZOuL+Bvyvoifc0kqRgG/u+zulD9HfLzc4/XuZ5OXlgHiSy2nYCtUtBbY3IqdB+xZjcxDxImfUJaTY+k3TvlIrCMiXUABv3sMxx8m+VtGe5sCSzl1vwOmZ7S5Dba80LMZeXnaB7Pz8MfIAf5EXobK04BXnLp9SF8Sex22Cixkx8S2pEMU8LvHx7DeVIi39DEm1sv7aUZ74PcCAQ7BDmORvvaP1C2ILY3NcYxTPpr4UYkeL+1GzkY/6QAF/O7xaaf8eewwkhQL4z+GXwpMSmwPLJeLNx/wGvnJ3Eowi/jqq68Dy2a0++sGbab6h1P+LuzgFak4Bfzu4Q3nnJ/R1u6RuiMy2hvR4OP2y2izNKcCV0fqT8pocyrwZ6duI/wbtMfLpTQ/NlkvFaeA3x2Ww/KahPwpo70DnPJ/Y9v7U52Cn+rhLPygI3P7JH6+my2JL3X1HBKpS528fQZ42KnLGSKSNlPA7w4rOOWvYamQU6yLv747dp6pZyX8XDszsWV7ud6NbSTaC0g61b0Dlsauc1fyf6+mEz9RKjZE45mIfxPfIqM9b1hny4y2pM0U8LuDl3vF2/Ie8zmnfCaWqjdVbP3/QcBbGW2CXefD2MTjScBDNHHSUodsBjyOXeefsSelXGfhD52sAGye0aY3HLQC6TfSy53ypbEbtFSYAn532NQpzzmg3FvX/Q/8Y+08i+L37l8GfpHYXq/FgDPqypYnnq+/UxYALmLuzUerA6f3o00vOR7kTX57T4Ejabzjt94NgJf7WOP4FaeAX31D8XPRX5XY1lLYioqQnKWd34jUeQdhN+OfTvkH+9HmQNmMcC95F/IPkb8e/ylhPWxDVoqJwKtOXepxhW9iG8ZCGu0clg5TwK++1YGFnLrrEtta2Sl/C7g4sS3we6KvkreqBOypwDs+L2cD0kBbMFL3C/KD4AGRum8mtjULP222e4hJxDVOec6xmtJGCvjV5z0mP46/YsLjHXj9MOnDObvjZ9k8ILGtXnsS7xXfltnuQLoUSyPtuZa8g0Kuw1+mmXOI+KlO+bL4c0Qebxx/FfwnSKkABfzq834ZU1fngL+SwntEj/F2h75K3lLRscSzMr5GNQ/ceBk7/N0zL37isUa8A00WxZ78UlwLTHbqUpd73oGfemO9xLakjRTwq8/7xb4jsZ1YkLg0sa1F8LfTxw7giDm1Qf3GWNbGKjqXeJrpjcjrld8SqctZ7nqFU546FDMNOzs5JPVGJG2kgF9tC2GPySF3J7bl/VLPxh+T9cQmDXMC/jrEMy7uCdyb0W47HYofUMEOiU81GVsVE5Kz0ckbIvoQlpwvhTep/N7EdqSNFPCrbTXCO1hnkb4k03vUvhs/q6LHWws+CXgisS2I3yTOJ//Iv3b7NH420HHEVzV5/uiUL4udGZzCm+QfBayZ2JZ3A1bArzAF/Grzzq59jPQg7a188XqQMds75anDTGBDNWs6ddOBz2a02SnTiR9NeEBGm+fhnx+QOkx0H/6wmPfzEWsrZAX8yXzpMAX8avPGQ+9KbGd+/B5+6lr+lYH3OXWnJrYF8c1UW5G/U7dTzsdy0YeMJ31S8zX8HdA5wzreQTmp4/j3Ev7eDMX/+ZAOU8CvNm/d/IOJ7ayKv148damjl39lOulr+ZfDri3kCvJO8aqC2KazH2a0550itjrpSz69MwnWSGxnCvakGeLNO0mHKeBXm7emOXWc3JtkfRr4b2JbGzrl1+FvuffEknfljHdXxbP4T2GfIn4qWEjsKcz7fni8sfeViG8iC3ncKdda/IpSwK+u+fAPvZiQ2JY3F5CTi8fbF5A6NAS2+ibkKeCBjPaqJNaTj43zh7yIH6hTh4i8p8P5SO+Zez+HCvgVpYBfXUvhp1R4JrEtb2godafuUvipmlM3gi2JnyPo/MS2quhirKcfkjMR7a2wST1ecBL+z8+KiW095ZSnHqwibaKAX11eKuBXSB+GGe+Upwb8NZ3yt0mfSN46Uhc71LubeMtN18eWaaaIjb2nHkj+qFPu3cw9CvhdRgG/urzhnKew3PXNGobfc3so6Yr8bJW3kZ6LZwen/AbSb0QpFsWWgm6B9Y69k7paIXaou/f5e250yseRnj3T+76nDuk86ZRX9dyC4ingV5e3+uK5jHa83mTqASreXMA9ie3Mh6UbCDkzsa1mbYcNszyF5ZW5DHsqeRLriXurhfrjRfxAnZqH/nHswPqQ1Gv3xt6XSWznBadccaWi9I2pLm/zysuJ7Xg3jtfxx5g9453yRxLb+QC2NyAklp4gx0hsTuA8LElY/fsuBXwZmyQ+oMXvDXCJU5469g7+k4933rHHG8NfLLGdlwk/2cWyh0oHKeBXV6sCvte7fw47zCKFNzbrLc/zeMFuEq0fzrmH5nek/i+wW4vf39vJvBLpa+hbtQzSe0ocR1pMeJ30Hd/SQQr41TXGKZ+c2I4X8FNvHGPwA9SkxLa8IQhvYjLXr7HAmuI0Wnty013ADKcudezdG4JbKrEd73u/CDA6sa3Jia+XDlLAr65RTvlrie14TwrekXeexZj73NZes0gfGvKC8H8S24lZD/ha5sde2MLrmIr/1JJ6M/JWZ6UOxbxKOD/P/PgdDc/UxNdLByngV9dIp/z1xHbGOOWpj+Lek8ILpOep98acWxnwz+rHxy4KHNaqC8Hf4NaqgJ+6xPNV/FVVYxLbmpL4eukgBfzq8ra5p467e08KqT2zhZ3yyaRN0s2L3yNNXTXk2ZT+7/b8Bunr2z0TnfLUMXzvJj2atPN+p+F3HLyORqwt6RIK+NXlHUiR2sP31pmn3jhCwzmQvv5+DP5NKHVeweOd3ZtiNP6+g1QvOeWpaYS97/0CwIiEdmbhB+qUdiBtT4h0mAJ+dXm/SKnfMy9Qp/ZevScOb0Iy1k7oJjSb1vUWW5WeN2fpZMhkp9xbmurxvj45TyKtaktj+F1EAb+6UoOBZ4EWtTOvU576pOB9XrFhhlSpY9qe1I1InllOufc19Xi/r/OTnunSa8s7bEUGAQX86hrILf85vJ5fqwLETFo3PJAynt2Odga6/aGkn0nbKq2a55A2UMCvrlb1dlPH2D3eyVOtmuRbAH9sP1XqqiFPqyaRvZt36hCWNzk+jfTVMl5bqQFcTwRdRAG/urwgkbpt3QvUqb+o3g0odVjiDcI9+aG0LuB7ueNT/btF7YxxyqcntuNNqKY+HQ2JtJX6c5E6lCQdpIBfXd5kaOovmBcIUnvm3o0jdY5gMv7msVYdfn1RC9p4lbxD2UO8E65S90J43/s3SLt5zIM/l5J6E+rUUJJkUMCvLm8yNDVQe4/6qTcOL0gvRNrP0dv4yxRTUwR4rsbP5NisU2ldErDlnPLUaxzjlL+BPzEcMgL/Rp06BJi6jFM6SAG/urwedeovmPcL7J2m5ZnslI8jPf+Kl7wrdedpzLf6+fFHtOQqjHceQerJZYs65ZMT2xmFH/BT545SOyDSQQr41TXZKU8d5/baGZPYzvOEe5HzAosntuXlY2/V+nmA0/EzVTbyNfynkFTD8JPFpR5G7+3MTZ2kHkN4hdAM8m4e0iUU8KvL23Wausbc602nBukX8XO5pB6N5x2HuEliO418jPSg+g1ae8TievhPQHcmtvVup3xiYjve9/4l0ucVvPkJqSAF/Oqa7JSn/oJ548RLkj485J1hmjoU4wW65fAPXM/xNrZb9uImX/894FctfH+AjzjlE0hPK+0NDXlHDXq8IwhfIm3eYkFaN9EubaCAX11eD98bx/V4x+ItSPrZoxOdcq/n6bkLfzXIFoltNTIFy62zM3ANfYelXgBOwU7h+nmL3xtgc6f8toy2vJth6lOMt4M4dRJ5LOHJf8WViqrabk6ZwwvUqQH/OewxPdQTW4a0YPGYU/7exGuaDtxCuPe7HfHDv3P9refP0tj1zosNU91D+lLEZo3BDkwPSZ1fGI9/g/a+L55lnfJWTSJrM1ZFKeBXlxfwl8A2zjT7SzUD+0UOBfzxwHUJ1/SAU74m1qtLGQ64knDA/xiWijn1gJZmTSJ9KCXXjvg7Vy9LbGsNp/xN0o+F9OZcUncWe5PIrcp6Ki2mR6/q8k6RWoL0Xv5Epzx1vPxup3xh0o/rOz9S9+XEtqpqX6f8ceDRxLbWccrvJz1FQ6uGhrwnBW9yXzpMAb+6niS8Jnoe0lfF3O+Ue71GzyP4E7efSGzrPvzUBfsktlVFH8XmBUJ+l9Hex53yGxPbWQI/4Hsnc3latWpI2kQBv7qm4f/itCrgr5nYDsBNTvlmGW15yx9XIP2JoWqOjtT9IbGtsfiHsXjfD8/7CQ8zzQAeSmzL+zlMfVKQNlHAr7ZWLYP0fpGXJT3nu9ej3JD0RGpXROqOTWyrSpbC791fTPr8ROxmmtrD9za3PUz6YSZewJ+Y2I60iQJ+tT3ulKcug7wfP8WCF5g8VznlI7EJ1xQT8Xfdbg6sndheVfwgUndkRntbOeX3kz5e7j0peE+BngXxOx7ez610mAJ+tXmrL1ZJbGc6/visNxnoeQB/lcv2iW0BHBapOyOjvU5bGX+y9jXSVkX1+rRTHntC8qznlN+T2M7K+Bk3UyekpU0U8KvNG4pZjfQjEL10BusntgPwD6d8o4y2TsXPBbMy8KOMNjvp/EjdaRntbY6f6O7CxLaWxu+Vp24E8+ZYJpG+nl/aRAG/2u4inM9+JOnDHd5QzMakJ1L7m1O+CvCuxLbAdsF6DgU+l9FmJ5yFHwhfAb6d0eZBTvkk/O+p51NO+eukbwT7kFPeqkNjZAAo4Ffbq9hSyJDUgO8NJQwDNk1s6+5IXc6SymuASyP1Z1D9VTsHE79x7Y1/qI1nNLa8M+TMxLbAT1txK346bo/383d3YjvSRgr41eeNra6Z2M4L+OP4qWvoX8Hvye2d2FavLzSov570TKHtsi3wk0j9zcC5Ge1+OFL3l4z2vBv79YntzI+/hyN1LkDaSAG/+ryxd++ROuZKpzx14hbgZKd8LJZSINVLwH6R+kWAX2e0O9DGAn9v8JqcrwdYquaQl0kfOlkfP7Ol93Ph+QB+plXv51UqQAG/+rxzVVfBz2Xi8VZ1LJ/YDsCfI3U/zmgPLKBfG6nPmWAeaFs3qN+bvFQD4/GfvG7JaM+7zinYE0gKb6XPf9Gmq0pTwK++O/DHfr1MjB4v+dlCwAaJbU3FH1ZYjfQ1+b22wj+Eo4oHZseOijwTOCmz3aMidcdntOctmb2CtPNwwf+5uzWxHWkzBfzqex1/wtVbn+2JHboRG07xHBip+1NGe2Cfr3fzuTqzzYHkLY08h/zVResAOzl1d5OeaTN2sEzq92l+/MnfyxPbkjZTwO8O3i9SavKz2cB5Tt2OpJ+ANQkLbCFLAfsnttfrIWD3urL7gK9mtjeQngC+Xlf2KH7AbkYs1873MtrzeuTTgEsS29oI/+Dy1GWi0mZDZs/WWQVVNGz4XGlpNiX8y/Qalpo45Zv4YfyEW18kvcf3bvwdwW9hQx6pS/56vQcbx34547rabX1sGGsqNozjpbJoZAf8m+gT+MccxlxD+Lzg+7BkaimOAr4TKJ9ETV6mmTPeTmxW2kEBv6LqAv7y+JNh65G+S/K/hE9PupW81T+X4Kfv/SPwpYw2S/UKdhMP2Ra4ILG9pfF3vv4W+Fpie/8hnIDtT1iHAVDAryoN6XSHp/AzLKaO44M/2boe6amXIT7+vyd+wi6Z23H4wf5x0oM9+Hl9ID1N8zj8bJsav+8CCvjdYRb+L1ROwrLYL3psItbzGPE8MadktFma9YjPeeSeAvYVp/xx0tfMe3l4ZqOA3xUU8LuHt+59NWCtxLYewp9g25v09f1gwzbPOXXvB/4no82SxDY/nUreCqX9sY1hIYdmtOdNRD+BfwazVIgCfve4DP/s0t0y2jsiUndwRnuz6LtapdYvSL8xleJYYAGnbhqwV2a7hzrlU4HTM9rz0l/cntGWdIACfveYgb+E7jMZ7V2JP5m3L34AijmX+GlOl5N+KtZgtxV+CgWAPUjfGAWwK/58wO8z2tsEWNSpa5RaQipCAb+7nOWUL0leLvpjnPKh+Gl5G4mtPx9Let6WwWwF/LMFAJ7G/5438vNI3S8z2tvdKX+b+OcgFaKA310uxE+zkJOl8neR9r5L+kYssIB+aqR+Q/zEayUZQeMc9Htktv15bDlmyAWk5/YZhv8UeTH+UKNUjAJ+d5mOf6LSTsB8ie29hY2th8xL/PjBmD3wz6oFm+DN3YU7WFxFeC9Er2PJfxryntwgft6uZ2f8m3/q0k7pIG28qqi6jVe1PoifQfNg4pOxwbfCVliEUufOxG4i7yS2CbZm+1Hip2mNw3bRlubzxPPZn0l+Hp5jgG+1uN1HCS/JfAZYNvQB2nhVTerhd5878U/B+mZGezPxe/LDiI8Fx7xE45O0lstsu9t5m5cAHiQ/2I/AD/YAB2S0uSH++vvcTKDSIQr43ekEp3wcjfOzh8Q2TX0Hfzy4kbup2W4fUGru9Hud8jdJT3ldK3Zm7knkrZX/fqROczFdRkM6FRUZ0gE76/Q1p+52YN2Mtzwbf4XN9fQvEB2JTQLXl+WuBOp2w7DdyfUHvq+DP1zXyDjgxUj9wsDkxDaXwk+nfTX+ebsa0qko9fC70xQsQIesQ3raZIgn0dqI/qX7PRDrDU7BxuyPotxgDzaMtj62mW4K9qTzEfKDPdhB756rSA/2EE/FHDugRSpKPfyKatDDBztX9E6n7hzyAvRhwA+durewdfS5aX8BRmHBTsv45hiF7Xztjy8QTx+9Bv4wkmckdjMaGqh7Fuv9u9TDryb18LvXXfgnH22PnUyU6hAs/W3IfMCNGW3WmoqCfb3+Bvs1iAf7g0kP9mCZO0PBHuITw1Jh6uFXVBM9fLDt7tc4dYcBP8p469iBJmDrw3NWA8nAmITf234cf4VNzHzYno+QF4DFGzWgHn41qYff3W7ChkhCDiIvb80j+JuxwJb2eWeaSnudQXxoZcfMdmPDgT/NbFMqQAG/u83ATi0KmZe8FLhgy/u81RmQn99FWmdP4uv1j8OWxeb4mVMe+3mTLqAhnYpqckgHbCdrLEPlQtjkW6rYjl6wvQBVPFS8BKOIf0/dHbBN2Bs40am7nCaf7jSkU03q4Xe/yVhvzvPrzHbvJL70bl/805RkYJ3foP6Tme3OQ3w479DMdqUi1MOvqIQePtgv6sv4eWs2B67IvJQJwPhI/TexiVxpj8uI97J3wpbl5jgLS5QWcgawS7MNqYdfTQr4FZUY8MHGdL3MhU2trHCsiO0KjdkGS90sA+sM4uP212Ert3J8CLg5Uj8Gf3d3Hwr41aQhncHjj9iBGSGLkf84/jiNe3ZnkLfuX5r3UeLBfhp5B9r3+muk7igSgr1UlwL+4BI7+/RH9M3d0qwzgF9F6hdA59UOtO0a1G9Gfqrp7+IP200j74xjqSAF/MHlX9jafE9/0tl+g/g8gLcfQFojdibBV4h/32OWxBLZeb6OvreDhsbwKypjDL/X8sTTDq+G5VzPdS/w/rqy57CnBw3cDpz1Cae2OAZLYZ3rZmz8PuQB4L05jWoMv5rUwx98JhAPANeRtwO31weAc2v+fw+wAQr2A+0m7CDxN3v+PxN76upPsP8MfrAH7agedNTDr6h+9PB7zcRPfvVP4NP9bH/znvYv7Wc7kmZxbL7kAeCpfrSzELZ6y/tB69dyW/Xwq0kBv6JaEPD3wFbuePZCB1CX7DrsnIOQqdghO9kU8KtJQzqD1ynE0xmfjK2xl/J8Hz/Yg7KhDlrq4VdUC3r4AItij+2eidgkr5Tjw8RX9NxA/GbQFPXwq0k9/MHtRWxoxzMeZb4syVgaL63dtj2XIp2ggD/4nUo8CdrO5CdYk+4xGkuXPDLymg3J37wlXUBDOhXVoiGdWrcDa0fqN8Em8mRwuov4buhvAb9s1ZtpSKea1MMvx5b4x9YBXEk8K6Z0r28TD/aX0MJgL9WlHn5FDUAPHyyr5fmR+meBVej/wdpSHVsB/4jUv4AdkzirlW+qHn41qYdflguAqyL1S6I0x4PJssSDPVgWzpYGe6kuBfzybImlX/B8BFijPZciA2z/BvXHAve34TqkIhTwyzMTG8+NJVjThqzBYXyk7jdog1VxFPDL9BqW8OxNp/62Nl6LDJyrnfJ/YGmPpTAK+OV6jvCOyp8Cz7T5WmRgnAQ8VFd2G7B1B65FKkCrdCpqgFbphKwJHILtwjwTOKFdbyxtsQDwCyyv/Y3AQe14U63SqSYF/IpqY8AXaTkF/GrSkI6ISCEU8EVECqGALyJSCAV8EZFCKOCLiBRCAV9EpBAK+CIihVDAFxEphAK+iEghFPBFRAqhgC8iUggFfBGRQijgi4gUQgFfRKQQwzp9ASIVtgSwMjACO+j7aWAikJP7d1HgPT1tTcMOJnmxJVfZXssDKwFDsM/jUewwHekCCvjVdgTwWWBGz/+HAdcDuwdeuwNwFHZmLdjT21TsVKs3espWAC7t+XfvQQhDga8C/wq0uTh2TN5w4J3Ea69//wV6rn1UpK0hPX9e6Hnt34A7E95zZ+xrNqumvdnY1+a+hHb27PmzLva513oOO0jk78BfmmhrB+DLwCbA/DXl04FrsVOpzo18/KnY13Amc74+hzrvvSxwBXM+7yE95R9nzhnG3s/AF4CbG3we+/V8HrVmYF+PQ7DvmVSYDkCpqJ4DUM4HtqmruhdYI/Ah+wG/CpQvBEzp+ff7ez6+3q6EA8hywJONrzaq9/1HY2fppvoj8KUmX3sz8KFA+dHAd5ts4xr6BjXPvVgwv4O+N7EhwDnA9k2081fg807dPcDqdWVvAAsGXvtu4OFA+erAf3r+7f0MbAVcFChP+TwOxDodOgClojSGX22vBMq8YYA3AmVTmdOLgzlPCvWmOeWzmNNbzlH7/rN7/p9qT+zQ7UYWJhzsAbZr8r1+T/PBHiyQXoX1kOvdSnNBEuBzhG/WEP5+LwD8IFA+M1AGc3/fvZ+B6U75zTT/eRwJfKbJ10oHKOBLzBDCwaxZ9cMhubbChhRiYkFpJexM15h1sd56qsPoG0T3ANZJbGc/Gn+OtQ7H5hcG0onAeokfcwYwcgCuRVpAAV9i+vvzMT9zxpE9E7Ahhv9gE4CeUI+21lca1O/doP6HTvkTwG3A84G65+kZwqgxDjg58j6xIbKzgTGR+nrX0b8bcsxH8b9mr+J/HvMAxw7EBUn/KeBLzPPAptgvf+2f0CTjXYHXbUJ4qKnWdticxOrYGPSKwE2B170XG8oIGQus3eB9PhepGwKsFSg/vOd61sPmMz4KnFZT/+PAx+xL+PfqFuxJY3zPtT4eeM08wF6R66y3BPDnmv83urmm8G6AJ2Kfw3hgM8JDQTlPStIGCvgS8xY2iXl13Z/QpN+kwOuuo/EcQP1k5xPANwOvGw4s7bSxaqCsfjXCovhj/EOZewVNr0k1/34b+5x2BzYHzsSCX73QfMHr2Eqb3iB/J3YzDK2YqJ+kb+RzwBY9/25Vb3804bmM57Anqd5FAFfSd0L9BsKryKQCFPAlx8KBstxx2xGBsped13o92M3q/j8NW/lSv1RkZ+fj3yHcU/1dTzs7MPcN4Qos0NbfrBYmvILqNPpOqE7ClnbW+wDhr0nM2T1/P5v4cZ53Ef5aXxYoOwP7fv0L+Ah2Yzst8DqpAAV86bQJgbJPBMpm4Qe0+iWNr2Fj6/WrgnZyPv4dbFNVyGexZYlPYr36XfH3r6xK+Hfqauf1oQA6kvTJ2IWAr5O3CiokdEMH672HrAJsie0rkApTwJdO2wsbxtgeC8g/I7xE8WHmDCXUWoW+AXIitn69/mayDLCmcx1nNLjOxbAlh3/uaXf/wGsWdz7Wu5lMdMoXjVyHt3HmWGyO4aHIxzZrjFMeujmD/0QmFaOAL512BLbB7FxsaOIgwsMJRzgfv2+g7Jqev68K1H3Vaed4whuPQpYBjsMmYmt5QzHehjMvUMaGx4ZgX6v6jx0KnB65hhShTV0Ak1vQtnSQAn738dISDOYt01fipzH4bKCsd+XKmYG6HSPvsxVwScJ1rYelFOjlfW/mc8rndcq9DVS9zgB+HihfEht/7y9vot27XukSCvjVFlp14U1choLNPJHXd4MZ2C7bzZ36dek7jDINC1iLEe6pLowtNfV8sufP2djqmka+x5xA6L1+rFM+zilvNBY/GjimwWv6IzR0Bv71SpdQwK+2UE9vMee1owJls+lfaoROuxHYGv/pJbTqZjhwNzZufqXzcY22/1/S85p3YSt0fos//DI/c+YFvM1IoWWjYNkzQyY2uL4P9vz97Qavy/WqU/5+p3wJ/IleqRAF/Gp7IVC2KuE14xsFyl6l8cYnyEv32yrfwXrwoaGUtYjvPA2lIhiGfX3mxU/tsIFTPhpL/9vrFeA84Gs95T8lfPPp7cE/TPjr7SVGCw0vPQ0847y+V+/T3C+Axxq8NoeXr8l70voXtkv64wNwLdJCCvjVdn+gbDh9t66vRTh4xFIV1PISarXDn7B17aHdmQthQS1kTWy3Z44VCY9H7wc8gmV9rB++mIqld4h9rd7GnkrqbUDfp4rPYENS9a6JtN+rdvhu2yZen+pJwsM6G9J3RdRXsZ7/WOymfTb+k4B0mPLhV9uF2C93/Y15H2zX6B3YEr6tnY8PTVqG/AYbsgh1AHpXf/yyybZSjceeZCZh+e/r18rviS3VrO/J7tOP9xzBnCWWvcYBB2O/Ez/HUgs8iA0PTcSeGrYkfKOoXa54JHN2vtY6E9gN+DcW6L3ecn1unkbux1YqnZD4cTEzsVVI9ekVhmE5j87Gbgob0XdH7k5Y50OdyQpSwK+2KViw3S1QtwbhXZ29ZtL8jscVe/54Ug4P6Y8fEt4c9bNAeWgc/kGsh9w7lDO758/O9B0a2o25A/4JzL2kcQEs502jHD1PM/fa96uwG3Ho43onhD0XkPe1/h2wC9YDb5UjsBtgfeCeDzssJea4Fl6HtJACfvV9h3DAb+QrtG5svl0bax7G8sjXp+TdEZsY7D1KbyPCk4QHED65621sJ2qtTbGJ7qnYE1JsuWbMjwJlexLONxQzDfhi5jWAXX8rjxqcju0qbrQhrd5DhHMhSQXosav6XqD5Azx6XQ/8YQCupR1+4pQfWvPv0Oqcd+i7EarX5YGyocwZ/55K3g7V/wCnOOWHJ7a1AXkngvV6Hpt7aKW/YhPVzZoEbNzia5AWUsDvDudj47TN9LRPxD+1ydsA1Eh9lspQ1srYkBDYz1po6Wj9rtJ/El7psg+Wohj69tbBhnO89eNeLpvDsX0KV2Orn/aj+SMdzyE+hHII1mNv1Ot+GBvP/7dTH/q6ellDj3bK53P+XcvbXfsDLCPmS059r/OxydpuPJi9GDrTtqJ6zrStNxrr3X4ECwTjsM0+T2E55C8g3lMdRzgVQSO3MvdQyRb0HXaZgM03eObFHvXrP7E/AP+tK9uYvjetEdiKnoexXmf9sYzXYumYPXtgKRFqzcAmSWtXvQzBJmc3wuZIlmTOebzPArdjm8G8AF1vBLYb+GNYvv+FseD5IPY1bTSxvitzLxWFvt+PWpvS90Z0AnMCtvczcDp+rhywr8EuwKewG+/8WHB/APt6XFj7Yp1pW00K+BXlBHyRrqCAX00a0hERKYQCvohIIRTwRUQKoYAvIlIIBXwRkUIo4IuIFEIBX0SkEAr4IiKFUMAXESmEAr6ISCEU8EVECqGALyJSCAV8EZFC6MQradbC2IEhawOrYJ2F6dhZs/djqYkfdD72A9gZvCkpFIdi+e3PxI4prG9nSM+fv2IHmNQbgqUlHg3M6vk/2Lm5kyPvuwdzf47vAE8AdxL/HOsNx06h+jCwWk9bU7A01pdgh6TEfBJ4F/6h6b2f/3PY1//xJq9LCqb0yBVVsfTI3wW+R99zYetdhOW8f7Su/HjCh5Y0YxgWsL12riN84MtQ7FzfemsQPn5wa+AYYOUG13NZz+uuiLzmo8CpwLKR15yDfS7PO/UPYTedZl2HnUN7WcLHDBilR64mDelII6cBR9I42IMdjvEIdoOo9Urmez/bRDsbY73yZj4ewk8Z+2KHxzQK9mCHo1yOPXmEnpC/AFxJPNiD9f4fwE7aCqk/FKaRjYFLiR+SLoVTwJeYDcg7QL0+2OU+Rr5T93+vneOa/PiQ1YHfNn1Fc6wduJ5NsVO5mrUIdg5v6ED2Zq495CLslC6RPhTwJeaYjI+5CzsbthWWZs7Ye8wo4OTM98j5uBlYwJ9VUzaO8GHpjYwGzsj4uJic75sUQJO24lkCmyCtdznwF2x8fDXg49hkaq/dm2z/UWwc25usmAd4leZ7ul8CzsY/6zVkCWCdQPnlWBB+HVgB2Aw7aLzXQfSd+D0QmzeoNx0LwM9h59puF3jNx7GbVmjyudZfsUPe58HOyl2L8Pm0WzJnwlnk/yngi2cFp3yLuv8fjAXE04D5aLz6pNeNwPfzLs11DjZMEpqsDWn2czwK+xxPBRYHfhn4mC8Gyt4C1sQOXgf4DTapWt8+2I2g0XDQP7CgX+sJ4Oi6srHYzSx1HkAGOQ3piMf72TgeG2qpdQU2+fixAb2ixkZhQRmsd9toOCj2Ob6rruwK7IlmrcDr1wAWDZT/kjnBvteuznuGbgL1lgiUnem8dkwT7UlhFPDFM8kp/zrWqzwT2Js5K1umAPcktL8h1jM9Fpt0PQ4LtGtkXGutXbDljLNp/AQb+xwnYMND38Z66WCf432B16/ttHNWoOxF7Omm3vvcq5xjeqBsnPPaRsNDUiAN6YhnAjYksFSgbl7gMz1/wMa8f48NqTRrJSyY1ruLtBtHyNnYjeMJYLHI6yZg6+AXD9QNwcbte8furwBOJPw5hoaGptN3P0KvO7EVULWWwuYAZvV9+f+bv+7/SwK/CLzuVTScIwHq4UvM/zT5us2xHaz/AZbr53u+lvj62+g7Obk68GNgYhMfv3eT77MZ9jk+AmxVVzcm8PpJwJtOW88EykY77dT6Ibaz+Qnsc5uIbfKq9zfiNw4plAK+xJwFnJvw+vcBt9K3J5qimWWYtY4GfhooPwQL0o1ciE08N2tlbPJ09Zqy0DV7KREgvPlrCI1/HxcGVgSWx+YYvBVOhzZoRwqlgC+N7Ah8Gdvq34wlSAug9UYkvn4GFtxDvPHtekdgN4drEt73DzX/fst5b+/3K7TR6i1sGWh/7UR4h7GIAr405WRsFc6ngBOwlAAxOzfR5i097W2LLUncDtgBuCrx2nonTO9I/Lh6V2I7ZT9Jc5/j2sAyPf9+OVA/Fn/+oH6VE1jaiGmNL9M1Ffu6p8yjSGE0aSspLu75A7bKZhdgH/oOaSwDjMQfwwZbrnhxpL5Zi/T8vTM2tt1fl/T8AXgvdiP6BuGnhVWx8fhHAnVDsJvCPwN1oWRvE5q4tiexr9tqzLnZ1L7f35poQwqmHr408nvg8ED5Ddguz20CdcOxTVgxrfrZ6x0PnwAcltnGV4E/0nfS9H7gJ/hLJof3/H2TU39goGwzwknabolfImBDT1tiT0b1FsS+VyIu9fAlZlls/B5sw9C1WI/1Bmw1zVisp1/vjZ4/jdpeFz/wz4Otpb+b5oc6ftRzPaGVK54x2A5YsN78hdik7E3Y8sb5Cd/UYM5a92ew9MQb19Vv2NPWj7ElmpsDpzttNZPTp/cmei+W/37Fuvov0vyqIymQAr7E1K5+Gd/z54tYr3oqFvBDHqTxYScfwVb0NPI+rKfdrB2wQN2sX9X8ewyWHXQ3LD3DZGABwhPJvTejXocQnvTdqufPGz1thTxJcweY1P6+HsHcE8dgq3a+FCgXATSkI76NsNzuIfPiB3uAU1p4HakJwCYDX2nytbHPcRg2bu+tGjqPuXezXkt8wtkL9mDJ2FKdRniO5NCMtqQQCvjiCWVhbMYDwEktvI6cXPonArc38brczxHsZK9622CpE1KchJ8PJ2YW4Tz+y2Arn0T6UMAXzzexYYMULxAe0x/Zj+uoTTkcamdB5+O2b6K9b2ITvVMSrmcqNhz1dKDudSy5WrMZQ4/DH3NfKFBW/7QRSqsAdhNJ3cAmBVDAF8/z2AaqVbHAfw/h5F1gY9DHYcsFQ+Pnr2CTvDl/ZjRo5yXnmp7BcvXE2nsem+hdAdgfuL6Jz3ElbPjGMwnbhXsc4RQK07Fln1sAB0Ta+W/g2ifXveY5bGin/nWL0NwuYymMDjEXESmEevgiIoVQwBcRKYQCvohIIRTwRUQKoYAvIlIIBXwRkUIo4IuIFEIBX0SkEAr4IiKFUMAXESmEAr6ISCEU8EVECqGALyJSCAV8EZFCKOCLiBRCAV9EpBAK+CIihVDAFxEphAK+iEghFPBFRAqhgC8iUggFfBGRQijgi4gUQgFfRKQQCvgiIoVQwBcRKYQCvohIIRTwRUQKoYAvIlIIBXwRkUIo4IuIFEIBX0SkEAr4IiKFUMAXESmEAr6ISCEU8EVECqGALyJSCAV8EZFCKOCLiBRCAV9EpBAK+CIihVDAFxEphAK+iEghFPBFRAqhgC8iUggFfBGRQijgi4gUQgFfRKQQCvgiIoVQwBcRKYQCvohIIRTwRUQKoYAvIlIIBXwRkUIo4IuIFEIBX0SkEAr4IiKFUMAXESmEAr6ISCEU8EVECqGALyJSCAV8EZFCKOCLiBRCAV9EpBAK+CIihVDAFxEphAK+iEghFPBFRAqhgC8iUggFfBGRQijgi4gUQgFfRKQQCvgiIoVQwBcRKYQCvohIIRTwRUQKoYAvIlIIBXwRkUIo4IuIFEIBX0SkEAr4IiKF+D/vew7JXlNXRgAAAABJRU5ErkJggg==;" vertex="1" parent="1">
          <mxGeometry x="95.00000000000009" y="372.5" width="75" height="75" as="geometry" />
        </mxCell>
        <mxCell id="EMlEh1vvEXm4IZdUszmN-9" value="" style="shape=image;verticalLabelPosition=bottom;labelBackgroundColor=default;verticalAlign=top;aspect=fixed;imageAspect=0;image=https://img.icons8.com/color/600/net-framework.png;" vertex="1" parent="1">
          <mxGeometry x="69.99999999999999" y="262.5" width="50" height="50" as="geometry" />
        </mxCell>
        <mxCell id="EMlEh1vvEXm4IZdUszmN-10" value="" style="shape=image;verticalLabelPosition=bottom;labelBackgroundColor=default;verticalAlign=top;aspect=fixed;imageAspect=0;image=https://cdn-icons-png.flaticon.com/512/5261/5261858.png;" vertex="1" parent="1">
          <mxGeometry x="110.99999999999997" y="447.5" width="43" height="43" as="geometry" />
        </mxCell>
        <mxCell id="EMlEh1vvEXm4IZdUszmN-11" value="" style="shape=image;verticalLabelPosition=bottom;labelBackgroundColor=default;verticalAlign=top;aspect=fixed;imageAspect=0;image=https://www.dydaqtec.de/media/image/d7/89/25/Datenlogger_dydaqlog_Icon_MQTT-BrokerDIhy2vhHI3lM0.png;" vertex="1" parent="1">
          <mxGeometry x="203.13" y="287.5" width="60" height="60" as="geometry" />
        </mxCell>
        <mxCell id="EMlEh1vvEXm4IZdUszmN-15" value="inventory/stock-levels" style="sketch=0;outlineConnect=0;fontColor=#232F3E;gradientColor=none;fillColor=#00a7b5;strokeColor=none;dashed=0;verticalLabelPosition=bottom;verticalAlign=top;align=center;html=1;fontSize=12;fontStyle=0;aspect=fixed;pointerEvents=1;shape=mxgraph.aws4.topic_2;" vertex="1" parent="1">
          <mxGeometry x="278.75" y="129.38" width="22.5" height="33.12" as="geometry" />
        </mxCell>
        <mxCell id="EMlEh1vvEXm4IZdUszmN-16" value="inventory/low-stock" style="sketch=0;outlineConnect=0;fontColor=#232F3E;gradientColor=none;fillColor=#00a7b5;strokeColor=none;dashed=0;verticalLabelPosition=bottom;verticalAlign=top;align=center;html=1;fontSize=12;fontStyle=0;aspect=fixed;pointerEvents=1;shape=mxgraph.aws4.topic_2;" vertex="1" parent="1">
          <mxGeometry x="278.75" y="229.38" width="22.5" height="33.12" as="geometry" />
        </mxCell>
        <mxCell id="EMlEh1vvEXm4IZdUszmN-17" value="End-to-End Observability with OpenTelemetry" style="text;html=1;strokeColor=none;fillColor=none;align=left;verticalAlign=top;whiteSpace=wrap;rounded=0;dashed=1;sketch=1;strokeWidth=1;fontSize=15;labelPosition=center;verticalLabelPosition=middle;fontStyle=1;spacingLeft=5;" vertex="1" parent="1">
          <mxGeometry x="39" y="559" width="355" height="30" as="geometry" />
        </mxCell>
        <mxCell id="EMlEh1vvEXm4IZdUszmN-18" value="(Creation of logs, metrics and traces)" style="text;html=1;strokeColor=none;fillColor=none;align=left;verticalAlign=top;whiteSpace=wrap;rounded=0;dashed=1;sketch=1;strokeWidth=1;fontSize=12;labelPosition=center;verticalLabelPosition=middle;spacingLeft=5;" vertex="1" parent="1">
          <mxGeometry x="39" y="580" width="415" height="30" as="geometry" />
        </mxCell>
        <mxCell id="EMlEh1vvEXm4IZdUszmN-19" value="OTLP (HTTP/protobuf)" style="text;strokeColor=none;fillColor=none;align=left;verticalAlign=middle;rounded=0;sketch=1;fontSize=13;" vertex="1" parent="1">
          <mxGeometry x="442.75" y="622.5" width="177.5" height="45" as="geometry" />
        </mxCell>
        <mxCell id="EMlEh1vvEXm4IZdUszmN-20" value="" style="html=1;shadow=0;dashed=0;align=center;verticalAlign=middle;shape=mxgraph.arrows2.arrow;dy=0.73;dx=27;direction=south;notch=0;rounded=1;sketch=1;fontSize=13;fillColor=#eeeeee;strokeColor=#36393d;" vertex="1" parent="1">
          <mxGeometry x="399" y="620" width="30" height="50" as="geometry" />
        </mxCell>
        <mxCell id="EMlEh1vvEXm4IZdUszmN-22" value="" style="rounded=1;whiteSpace=wrap;html=1;dashed=1;strokeColor=default;strokeWidth=1;fontSize=12;fillColor=none;sketch=1;curveFitting=1;jiggle=2;" vertex="1" parent="1">
          <mxGeometry x="40.25" y="680" width="759.75" height="102" as="geometry" />
        </mxCell>
        <mxCell id="EMlEh1vvEXm4IZdUszmN-23" style="edgeStyle=orthogonalEdgeStyle;rounded=0;orthogonalLoop=1;jettySize=auto;html=1;exitX=0.5;exitY=1;exitDx=0;exitDy=0;fontSize=14;" edge="1" parent="1" source="EMlEh1vvEXm4IZdUszmN-26" target="EMlEh1vvEXm4IZdUszmN-37">
          <mxGeometry relative="1" as="geometry">
            <mxPoint x="496.5" y="841" as="targetPoint" />
          </mxGeometry>
        </mxCell>
        <mxCell id="EMlEh1vvEXm4IZdUszmN-24" style="edgeStyle=orthogonalEdgeStyle;rounded=0;orthogonalLoop=1;jettySize=auto;html=1;exitX=0.25;exitY=1;exitDx=0;exitDy=0;fontSize=14;startArrow=none;startFill=0;endArrow=block;endFill=1;elbow=vertical;" edge="1" parent="1" source="EMlEh1vvEXm4IZdUszmN-26" target="EMlEh1vvEXm4IZdUszmN-36">
          <mxGeometry relative="1" as="geometry">
            <mxPoint x="341.54999999999995" y="841" as="targetPoint" />
          </mxGeometry>
        </mxCell>
        <mxCell id="EMlEh1vvEXm4IZdUszmN-25" style="edgeStyle=orthogonalEdgeStyle;rounded=0;orthogonalLoop=1;jettySize=auto;html=1;exitX=0.75;exitY=1;exitDx=0;exitDy=0;fontSize=14;startArrow=none;startFill=0;endArrow=block;endFill=1;elbow=vertical;" edge="1" parent="1" source="EMlEh1vvEXm4IZdUszmN-26" target="EMlEh1vvEXm4IZdUszmN-38">
          <mxGeometry relative="1" as="geometry">
            <mxPoint x="651.5500000000002" y="841" as="targetPoint" />
          </mxGeometry>
        </mxCell>
        <mxCell id="EMlEh1vvEXm4IZdUszmN-26" value="OpenTelemetry-Collector" style="shape=module;align=center;spacingLeft=20;align=center;verticalAlign=top;sketch=1;fillColor=#f8cecc;strokeColor=#b85450;fontSize=14;fontStyle=1;spacingTop=5;" vertex="1" parent="1">
          <mxGeometry x="314" y="691" width="200" height="71" as="geometry" />
        </mxCell>
        <mxCell id="EMlEh1vvEXm4IZdUszmN-32" value="OpenTelemetry-Collector" style="text;html=1;strokeColor=none;fillColor=none;align=left;verticalAlign=top;whiteSpace=wrap;rounded=0;dashed=1;sketch=1;strokeWidth=1;fontSize=15;labelPosition=center;verticalLabelPosition=middle;fontStyle=1;spacingLeft=5;" vertex="1" parent="1">
          <mxGeometry x="39.75" y="732" width="340" height="30" as="geometry" />
        </mxCell>
        <mxCell id="EMlEh1vvEXm4IZdUszmN-33" value="(Receiving, processing and exporting of signals)" style="text;html=1;strokeColor=none;fillColor=none;align=left;verticalAlign=top;whiteSpace=wrap;rounded=0;dashed=1;sketch=1;strokeWidth=1;fontSize=12;labelPosition=center;verticalLabelPosition=middle;spacingLeft=5;" vertex="1" parent="1">
          <mxGeometry x="40.25" y="752" width="415" height="30" as="geometry" />
        </mxCell>
        <mxCell id="EMlEh1vvEXm4IZdUszmN-34" value="" style="shape=image;verticalLabelPosition=bottom;labelBackgroundColor=default;verticalAlign=top;aspect=fixed;imageAspect=0;image=https://i.pinimg.com/originals/6c/96/e1/6c96e16fe6985c5cdada9f3f721e330a.png;" vertex="1" parent="1">
          <mxGeometry x="395" y="720" width="38" height="38" as="geometry" />
        </mxCell>
        <mxCell id="EMlEh1vvEXm4IZdUszmN-35" value="" style="rounded=1;whiteSpace=wrap;html=1;dashed=1;strokeColor=default;strokeWidth=1;fontSize=12;fillColor=none;sketch=1;curveFitting=1;jiggle=2;" vertex="1" parent="1">
          <mxGeometry x="40" y="830" width="760" height="160" as="geometry" />
        </mxCell>
        <mxCell id="EMlEh1vvEXm4IZdUszmN-36" value="Loki" style="rounded=1;html=1;sketch=1;fontSize=14;fillColor=#e1d5e7;strokeColor=#9673a6;fontStyle=1;verticalAlign=top;spacingTop=2;" vertex="1" parent="1">
          <mxGeometry x="130" y="850" width="150" height="80" as="geometry" />
        </mxCell>
        <mxCell id="EMlEh1vvEXm4IZdUszmN-37" value="Prometheus" style="rounded=1;html=1;sketch=1;fontSize=14;fillColor=#d5e8d4;strokeColor=#82b366;fontStyle=1;verticalAlign=top;spacingTop=2;" vertex="1" parent="1">
          <mxGeometry x="339" y="851.13" width="150" height="80" as="geometry" />
        </mxCell>
        <mxCell id="EMlEh1vvEXm4IZdUszmN-38" value="Jaeger" style="rounded=1;html=1;sketch=1;fontSize=14;fillColor=#fff2cc;strokeColor=#d6b656;fontStyle=1;spacingTop=2;verticalAlign=top;" vertex="1" parent="1">
          <mxGeometry x="540" y="850" width="150" height="80" as="geometry" />
        </mxCell>
        <mxCell id="EMlEh1vvEXm4IZdUszmN-39" value="Observability-Backends" style="text;html=1;strokeColor=none;fillColor=none;align=left;verticalAlign=top;whiteSpace=wrap;rounded=0;dashed=1;sketch=1;strokeWidth=1;fontSize=15;labelPosition=center;verticalLabelPosition=middle;fontStyle=1;spacingLeft=5;" vertex="1" parent="1">
          <mxGeometry x="39" y="937" width="340" height="30" as="geometry" />
        </mxCell>
        <mxCell id="EMlEh1vvEXm4IZdUszmN-40" value="(View, search, analyze and evaluation of telemetry data) with Grafana" style="text;html=1;strokeColor=none;fillColor=none;align=left;verticalAlign=top;whiteSpace=wrap;rounded=0;dashed=1;sketch=1;strokeWidth=1;fontSize=12;labelPosition=center;verticalLabelPosition=middle;spacingLeft=5;" vertex="1" parent="1">
          <mxGeometry x="39" y="958" width="415" height="30" as="geometry" />
        </mxCell>
        <mxCell id="EMlEh1vvEXm4IZdUszmN-41" value="" style="shape=image;verticalLabelPosition=bottom;labelBackgroundColor=default;verticalAlign=top;aspect=fixed;imageAspect=0;image=https://upload.wikimedia.org/wikipedia/commons/thumb/a/a1/Grafana_logo.svg/1200px-Grafana_logo.svg.png;" vertex="1" parent="1">
          <mxGeometry x="720.5" y="859.99" width="60" height="61.23" as="geometry" />
        </mxCell>
        <mxCell id="EMlEh1vvEXm4IZdUszmN-42" value="" style="shape=curlyBracket;whiteSpace=wrap;html=1;rounded=1;flipH=1;labelPosition=right;verticalLabelPosition=middle;align=left;verticalAlign=middle;" vertex="1" parent="1">
          <mxGeometry x="699.25" y="847" width="20" height="88.26" as="geometry" />
        </mxCell>
        <mxCell id="EMlEh1vvEXm4IZdUszmN-43" value="" style="shape=image;verticalLabelPosition=bottom;labelBackgroundColor=default;verticalAlign=top;aspect=fixed;imageAspect=0;image=https://files.readme.io/e5e1b43-grafana-loki.png;" vertex="1" parent="1">
          <mxGeometry x="186.88" y="880.4200000000001" width="36.25" height="36.25" as="geometry" />
        </mxCell>
        <mxCell id="EMlEh1vvEXm4IZdUszmN-44" value="" style="shape=image;verticalLabelPosition=bottom;labelBackgroundColor=default;verticalAlign=top;aspect=fixed;imageAspect=0;image=https://upload.wikimedia.org/wikipedia/commons/thumb/3/38/Prometheus_software_logo.svg/2066px-Prometheus_software_logo.svg.png;" vertex="1" parent="1">
          <mxGeometry x="394" y="881.5500000000001" width="40" height="39.67" as="geometry" />
        </mxCell>
        <mxCell id="EMlEh1vvEXm4IZdUszmN-45" value="" style="shape=image;verticalLabelPosition=bottom;labelBackgroundColor=default;verticalAlign=top;aspect=fixed;imageAspect=0;image=https://seeklogo.com/images/J/jaeger-logo-9E2F0DC07B-seeklogo.com.png;" vertex="1" parent="1">
          <mxGeometry x="595.5" y="873.5799999999999" width="39" height="53.42" as="geometry" />
        </mxCell>
        <mxCell id="EMlEh1vvEXm4IZdUszmN-48" value="InventoryService" style="shape=module;align=left;spacingLeft=20;align=center;verticalAlign=middle;fontSize=14;sketch=1;fillColor=#fff2cc;strokeColor=#d6b656;fontStyle=1;" vertex="1" parent="1">
          <mxGeometry x="420" y="162.5" width="180" height="50" as="geometry" />
        </mxCell>
        <mxCell id="EMlEh1vvEXm4IZdUszmN-49" value="MailNotificationService" style="shape=module;align=left;spacingLeft=20;align=center;verticalAlign=middle;fontSize=14;sketch=1;fillColor=#dae8fc;strokeColor=#6c8ebf;fontStyle=1;" vertex="1" parent="1">
          <mxGeometry x="420" y="490" width="180" height="50" as="geometry" />
        </mxCell>
        <mxCell id="EMlEh1vvEXm4IZdUszmN-50" value="FullfillmentService" style="shape=module;align=left;spacingLeft=20;align=center;verticalAlign=middle;fontSize=14;sketch=1;fillColor=#d5e8d4;strokeColor=#82b366;fontStyle=1;" vertex="1" parent="1">
          <mxGeometry x="420" y="372.5" width="180" height="50" as="geometry" />
        </mxCell>
        <mxCell id="EMlEh1vvEXm4IZdUszmN-54" value="" style="shape=image;verticalLabelPosition=bottom;labelBackgroundColor=default;verticalAlign=top;aspect=fixed;imageAspect=0;image=data:image/webp,UklGRhY8AABXRUJQVlA4TAk8AAAv/wNOEBG4jSQ5kiZrWuhGl/8OD3v+akT/J4D/YnyvWfm9VJUZJ5NCBgw0YF8Zvc2XodW4e3gzpAvhp1lkRsZJsYOTJBm5TbjVbpt4Sp220Afbkga4ra2xGdrNYpvxILhpKQhdogZvqiqTTDIFRlIsTd8whC2FfQi8m1WRkJABgdoR7d70gg0NloTVbhOcaikyyRSfvHyggG5oaH8WzI8ILv0FPvTqm/7/JkwjyZbSinqFJoBX5B/Uk6gfAP6+pdNGkiQp0Kq0/94PGx48/60ZE9qAA24U25ai4xgbyeVykYuR+1+UUUdzh/2fAPiEVB7j3IuVOVjSz+Olyt9j87BHaXleqUAAiMqF9GqumIKElvs6OVZzAAM4y6avq+RtFItBlMMAZqn1IvptTiuLAUIotKpEc41CCJgkAQgGsEZxDVGrAJgTBHKIIETizyXEYoAcnr6CoWUSdPb6mfUoJ/v4NAHLsxN+ebUwbiNJUVfln/UyHDwjYgLyCfHginBOHejIgdJHEhiic4YAoZV9bRd02HBdU5qN7K6QFKg5UDoPoTO4Os5LNpnrRfPTar7/f7kkqPni//8faH8Eh5XT997f9/k9cgutD+7eeC1wRpDLOdYLZKRwd4d7OO4jhdcCd7l4L5ARnEsU14qPuy1uHNdaILXAiee3QDo+glOLXiDxPPFeICMV7ziuFe8F0gucG7cRpOIjvRjBufGRXlZ8BBmfWTwLpBfISMVrEXd5FjgjuFbc/S5wl3gqjsRT8T4n7nbjIx2v+AgygnPjvcDpeC9GeoHzxA0Z6TjuzrMYwRnBqQUygnOXfU56MT69qLh1/C5wd72LeEaQio8gI7WIPHFPRnBqEcFhoaBtG8nQR+c9iDcGkW2L2PM/MRR6DUQUSAQ5SAAAgGybzF5m27Zt27Zt27Zt27Zt27rNTADe+v9VSbaz9ynq7uG5MxeemJmZKVxMQTcAMTNe5sGeLtiivbvrf95C0c8QVQwPxIzlKoYSa8y+Yp0USuTeBCYCmS2WYnjHbHeLpUlA0GIc96IrW1rjdgL3mUK3xFIMFYUYXIaK4YiiOGJ2H5Mpltq97mNw5ZbAnQi2OIOLplwcS37Z47Z5xBDAWI8y0FpjXldM7pglcplVCcjFlvncSaDdfuLrPnebshnGVQIMNwGxErhrlSgFPDFQrm1bta30sXF3S4AS8Wg0P58fAxlAzWvu7nrPlFvbtqota+378FRz/pAuIKIaWqAql9TDP/wz3F2/72zJtm0bzzQ/h1+c/OVH0MO62nZV0127ZduKkzsBdrP9cy1J+f3rnO7Ri9Zaa21hEu8m0Qms3r2rtdZ6e+b2PfWzqlacZ/4jCvG3EL70NwFkFuOuee1OAFFJIDJRNingtoVKYW1M3LKxiUK3jYtLDPNsGGNDACSCtXb7JEAOWkagzRMBcdDehDQeWWB2IKSE2zkQQidwgyANZW0EKPd6aGVPMCQg8yACrVw6t22btqYx1973nfs+24i+6EVlV1StYpuRrfRDXvgHrsy2U1uR7ceLs9ekKtu2atvpY869z7l8w8zMqJkck0b74Av4Pf1U6BdyVTzHJgpdHHMen3v2WnNQ2rZtTfQ8SfCBYfC6u7u7u69932W773/oL3Dv2mUgQBKCu8OHSwIhRN/knQACBuX+L/d/uf/L/V/u/3L/l/u/3P/l/i/3f7n/y/1f7v9dRSPOf5e65/pbQ5NJsBnMkc/TwpHfHJABOM372L233ndtDdeTirI4CHQGFBH3M5II1hYhAY2diL2zZvXiuTpgndiBQ+T973okhqW8vBE3V4Wnie6luczV0S9lJIEBmDAgDAk3NkJ2UVCPoaQ0Zano9TctJgApoXvAtV+EfMcDTD0ucB+le1wdQjAUKQIWmA0NCMyuFoSBkTdjAA+ZhTN10WYqADWRw/l/Uvfe8u3lVclXCZ+6OruaQCGLHFo8CCwKm4RJQ7PwJZmfH/HVHqGkcLe/5mPvjcv2rR4+gfSmhBIAcmiXPwMQpTbgq2ql/zi59e8LCdwdb/oktB49K873peSzNN5v2xX7GcAC9m+E7y/8cZtM3u576+cuToa3IX/hiq4Edg/tCs67IBRPcK7O9w9ZcwtK3G7Vw/TMevFTgj9zJZ8mdsAGu+KFADqkStVygb7vHDhpm77+lw93SvA5FG/BeIZ2ZWbImlcuLiMFgJ2y1W1lj2TONjt4pihudRfhKGZ6I8pI18pgdjFFYUyhMqkMFwkGgcU60G7u99RzUrLWO0qoamQc1CUSpqEsyBgOMGYQWZQGwn8PMvolUcNh8KDzyIeL3ksRCoCqcUJf2EEtPrUz7DQtHuYPGYJRMWDsW5uLo7CBi8Q0razZoK0jMkBDixUpAT1hLiwMi+Ajdpw+YjEtGhak2ZAGB1SyKC2R8owo7/fyE2qStt9DoJm2W4BdgH3YG6HRC/PV3IPX5UfGFJIIiTQrzaO/SwYVA2BPrbwidSmMSoJWVm2YrxDFAdaiASySh8bj9BzwBGlymgUZcEjF3i245YLSCd3PhwTtXotoULKMXvbeVXNMJX3QgipLKUpT01PIdNvRycxMaQOs5GxUddtDEBwIUZRgkaYxEiuhkR5io2UGJWZE3xWzG3b9v0rOJteclBEwoPqkoRxhWJhwEgbZSAQYhYzshtgV18/r+93/NkrM9ntIqG5UYDMMpGyRhYFTC4O1CWJTgazMRAGURoxIDoZtUJKyMjFFBrB0rYFxlP/G8aCQpAkLxQyFJaIvUqX35KtmUrbfa6iO4J3IvnHFIgvFJh+Dt35cUrCfe9dScGrTaNkqCVm5rGPDiAyMABtbpAjOkAQ7BPAb2igYjCX2sJHYY05+SE7IHjZ5TRbI01WGZO6NMMY52ISh1G1f6XV0HQR4n72Gw3fgZGy0qTJEUZp4f72FRVobJAc9JOAH61FSyARMaYISqQcOblyWVOy82d9QPZmAJuYIDxAR0libOFXB0PKh0oIqy4hFKcxw7yffTe/iDtH9EBu5PlVEeCHCoEgLGxOsx1DrxMCnksIwZ8aiz49J5quj8VH3M+zS/d8ajMCwEqJwWNh6esYOGYKEMgoAR5XpoOfPE+MlLz0K9yPsxPfesuqVC20GZ1CGlyNGq631GPpjTg0EqHAr4Y71naW++IeD2VEp2I13/qS5VoSkzwQICy95UQXFZKklVKgAtknZpieuv/Nr7mCZgJ1x1UmzqhNAEXHK4LcjFqOvbxWFQ3LlkKfCMubS5SjZX6+nAHO7IxIeIUBwEkwECYFJIPqNxDvimtgiVomjWBlIudUv1iC5SYWWLbw4W2mguLXkIgoVhhlSthkJjSYawnZGJGzCg7AgSAkkhHWJT8Q8EU8sl32ctvFrTVrDMCGJ9A5D48XFrw+KhMQUFEABW5k0WFuDg+AAynZFJHyixCVgEXkLYVn2ccv5y5EnQpCjkAmLvWEGxdapReLSaCjDaSK2CsVUI223JyLBEd4KwsQFiaisA+d/RDmwnX3qSKdF7jQngy0anEEXArSs6sxCMM8gfcjD7JRCAgliAj0Cl/jdQ7wQvyQioREMBCWBR6ASCFBZ4utE4oY4yWrwtmdBIMtGPF5AJAT4PASc/hTxMNEgMgTbAAJ/aHcmE3iAsmN2R6KHeCYOX8K1ZgQRoQ5GQr+s417DF28FulgUYYt91yc+geJHqelkL5Thont+4mFSFDKFMCYcCeoO4mcEUG5hmcQI0U7sKylIzEQoodCdT3kA4PqxCyCySahcJF4ielRHQbZGIpgoVWEIJqLW9/WHTsJ1TUbgrY0IKPgI7+UDACpm9xLxRJslI2TBSaiRkMs2HnaxfRPki1QFJIKMuXbJCZgjgJofskHLgEibbk0JmLW/sNEHCefD+WBUjUQTEVMlAYmOmCDIEXmM8OGZch/7AT0S92NfI1TqKWCIBCERTkh0GgChS6iCmfhCmBE9FswjRFhGpcs2psW9Hr0q1sk1EUQwVwWww0i2pz1PwcSl0eRgGvPq+HBgVsQtYUgsaUfIE/meAGbAM/5CoM8ZEP2hMoSMMYCgG0vM6q+bcAI7sTChYL0yC2UZX6axfM8LHIX8lsCdoiQtcnZHJYNdNY+ZHl89rgAN2NOmkHKruGquDZKSzwXcDKHytTVLE2kQLU1hORvolAghEkMRFDBIAo2gh/4JoQJf0+rGWC+HwGZxCIKyDJxvsu78iATPQREEBRHeAUt/2HEVge972xWAAHQkihLs/B5lEJrQkNicoBnEeKcQgnr5dPtBQCEIKqPA8xgAoQUNiaQPbsHyLMiUYQAT943zlyL9HtB1UBAWSQfc8A27qo4nplqoZSaRmK6Np7P9FfWVMVYLEBkvYwggcPRCNBLmfog+w+jTX98oLYgdQqzJcnH7ZRflotnVtUScEwtDU1x9+W5ABt0ZFA4U7A2wuuLMH3PhP7IuGHpFIb4RXJoRTeolHXdDlAyjpD+CP6bFkOOA5XbjPMTHsotT5tCdSAkUYeuQIMIzTZ5AuGlDrZDpJkpUZnqGaqeK04oCIpR8SIag+5RhBLrzpgMtCZTpWC+feGPpccssOoxYUs5AoQgJFhm2upZSInXjUMFEiQVPafFrWIqqYB+jOIQGIWlmhSCUaxi+7rZ0G5pgda2WyyaOWYiz7jKLyd+Q0SLJ1uqkmzlmrXO0CaSDyupQYYlMR0Lelyz2zjqMNMG+RHEcIpA8yCbW6ISyDcPW3Z242gy7E8ulToeFWHTKKuYbn+tBMLC0bJFjreSkacWJwm63MhMCIC8QlV03v5x0irj9dw8VBxO2ZmLEO4SuNYxavaUIHWibmY5ntUCMPwmDTbSgrPLSbk1EkKHbhJQd40UTFsTbyVT1FDLVTRId5FC461936YooOhFGbjTzeokwxJ1hNOhtIEGmEQipWViuWiI9JuQSRZmyilMek1ZPV3ghWKfULVLAWNMHddvWeaVlNia5giPZ99Qc6YF5rlh/ntA2Lf8ZwrxEIWkM2avRGyEOrZ9nQ5bLJfKOMNEdWccXOGWUUZZLhruCpzNstQfCETb2U2TJwR+xUAQCEJaoZg5ykx2aHm7/HRQLB0EuDLMa2R0mQcxszRgaiD2dZWagWbC+lNVC9hY29goX0Vqd8QBkE8T7MUT9iuyyiuMeQ6pJFipOJCtHhGHFB31b8ccU7G+kJOL0xHis9T4+bKqBffVK0Qjmn2NIDZ3aVRG9CBsjsr5AtRFkiboGnY0erxkuYqDlQoyYAoFB0PYRWN35WAfx4WaIyx6UWRYmEyCW9t4iQwQNuDFOiihUMMo2xczhzNm7BrFogb39WtFABJETy4gI/4vRLmJiaH1/PhDxQgfXwEE0bCoyBaWUglL+OyOGofMJ0H5L+2K9ykxX7UAg8HC1EIMdYVFtN12h2z4bVFauE1PyHiqnnHFS1wJBgpzwMCJfSeUSo+DO1HAQxcRVZAaaIxQlcG4i2AWq+abRJMWhNdkiw9AJbbgzevjqdgWDwYQ1LLrP5qRTwm26oXi4hlsxIAs+rFUoq8RwCQTdLlAdOdwZw2YhL0UjjrCenrAuwSkToUqGjGD1xKSO+WrPQQkUu6aUBRBKECbGnoGhb8IuTI0mInOks6Kwc0TotRtwq+5WwtmQLYE8Ovrvg+70tOiA3REBEDYk+uivm5AWI9ymKDEQWrkzS21szB1ZbPL84jMWttvhh6thdRi6AM12PuycC2UxCNnbTaHoyvygg8HHsgztBxH9TWoTKgwcEmMgeIecOerIbkfxhQKsvijBIsNOI7PoE3PEvMU8y7yW/+yllgvQbc8ogQhCtgSFQcFXTf3dKriLuxjUj5rKAMKAxB31bQzCT5D0pjLUL/LMUOzudYu+vTgWayFMfauCtjulXWAOzAuZBMDrH5amZWkVGHLYKYDtoZaBacK0Le5xnXhw5ioQ7yDaOXA7zxDlEZj7Ikb0ZPF/GLCxdvmC8UtsayVwSyWvo0h8nFjTktFZaYmzmAUBDm0vdHa2VN7Ma5jB3gwjaEZ3eTUXUFlZ6UuQa63ra61OV8c6Oootr/EaLcQXi7Tj80czjsSRvmNVhxVGX/baq2uil7S4b83KsG9YRoYcpsc9ha3srFJEW/yX1cEHUTQSHGAVR5zIifIIprRQfATwf1yGxQ6QK7iRsY+w2L6udB6h7WLT5j4c4U6ItmlSvUQCrzsPN9b5GpUFob5LIJTH2m1pD/3Gmmt+FDFAzL6zgnZefd3QdNKD3ZioJZ5jXCTY1vFdJQdugfjUv78f0ZYIo42pigCASjQvk+hcU4sm7QQrwX0JBKMd9xHWTyR6iN3TuZRH6bQ+u715NiT/6pzdUgo0Lwa5F11L+q25ZCBfDgfQYfTSi2o4LgMbibAfPGOTpyZFIfn+RDcHNjcyqvOmA2Fi7gKAl7gUhvaNyTTpRW7Ccx2IEjyvsC5icIFEycbauQj2x/gi9dXJFJRfKL7GE6zrCiJJncYrEHxZiKqaZ/gP3RoRJGu7g9HdpXzgwbcLxRZieh+IDQ4S2lXMc1J7Lu9BxRoTm/oCRFk2TPVlEHoKob32gas7n3tZ3kS25GnM4A2KCpyJKzjKR0hanC71zYv/4l5jjjZnPizTudRz6XrCfICqtwL2KcbI6cQ0Hips5VJzbpQOZY+4b0tQSBAQtTUcNpFrR3NdhLAY0VcA8H8Y8CJd0hAchMNiFZjbhxD2ROv/IDzrWRZKpCLia3iGR0iEG0T4DgRv4UqWGmhxpOfjOoj4lJtP2RP75kTwlABh63ERa7ua81EhhhEpNiJPPcJwopKpRMgTdiVoSDg/xSL3xtLc/ef/zMyfWxAy+twIigPQe+EagvZUgKfMK00NqWkaqhcVZUQp34/zIyBQSIbYISY58LUnR3NnooTiIwDgC3CMHSRJ3ZX8PWiaHHuE10NocgyKRQaC5UaItVBtj/EGYE/eyB20ajBfCLcR5iWx6gkBIg629gQ2AI8QPQgIe4cC1mDCNTRC2+59We5xfHPr8rT+dKXJrITVJmcCuc6nWnKaHepQtivCuEdOay/UMnDJhWq6gL6tVpdFHflkliiPc9hEfmP05kwHwvdyM/1UHQ9Dcp6eFIu8EgWtU6Oe5ocxZJSAV42Qx0HExqBlerGj+YaKoTollspAsLrRBTCcsAVjX95mGHgls4D2uU+wvnrLcqPdqEQcK5s461CNZt3w8BismQ7J4eFbCBW2CmiQSg20pu7GUkeQwVl8Jw7MheiK3roIITGiP96PWhMDVlchgUO47AtkrCb8GIS9oJ8M4bA6aOyMb2XTZ94GsLWrAGd7HsIOIUcEKEg59FBWZVH2exTUdL0BOsuiySVWydN0Co4ppMHoBAViIHeMrxlpGSQG8NnGPmHWBtOijXwGTX/L5/B/VU/UdhyuUHwEQp4LB8E6VrsMERVAzjspaYZ+cr/RgfZBzEgCX+FMpoA1mRLK/Ms/D1mdWVRYktL/+5etMzTxlI0Ccq+OzKWmh0EnqDlGDs3pcEzB6GZ8CTEV9lt9WNNGkAGI3i/BgSqiMVpLTQfC90I8hNrUAhmcPXU0uwbImlmoZl4eqPuoPmSMJQwkH1NbWhd4PYgmXycGiZPKipxw5huGFJXFvfLmi8nGx6fKZY3Bj7fahUBOJy8FoVb4P6k1MF+3cdAp5DXeiuJwieraKO1gDkXsKOOh/NkwYKkPoRVhdBvSeA+hGQIMuwEFOYmXXgOxq4kqMAeOQIaI9iG1ylqPrt+GqZRMempz/bDMnBWZCzUMZbs7Rg7N6WqoYN7dBu5CYg75ZUdShpMC8H+IUw5MJGqitEeAcPwuEPYLcNzGnWg0jHCEPAejmRdMugvIqojtGsMIfCJOcXmIPLgFF5IXn8RyPNA/Ks7JCNWYz5BqjGWmrh4S6MQgFDk4Idiu8n+x97D4wehMeaQMB8AFEJUs2IcriMqC+YqNfJJwDZtj8OaZ0uZ1IHFeMxCslzNAGmRHxI0CP6cdUnpn8zyQnji4AIsx8m2aUkNWkGqRxpzad4NzAUM7nRJeSG766bSKQQGQl05iNxzY3OsCAQAcwhWw1BKlUVnbJYhNbgxnj2DAUls1IaQJUCbtHSI4CYl7/4dRtL9tsPsqorGXAfnV5A5rseqnvwWI80ZVf1oO6VJOrIsx1Hx6m08kB+1QqMS2K8NmBgmz320gXeT7aXgrLDjpqGxrEI6/CiIkmjlWRUhpsh/gVLWHsczmYr6bwBt9Jn0qIlszLwmp96HFIB4C/HE/khJRAFbVPHUutR251gGfoN7hwMTJlmK+kofOFCQGc8XCxiv/vh4yB0Yies1uXAgK9jooRC/YdQNWRRVBPziWK2DpIQlEYfn1iY2sjORJTocB88xr8DjjGbKX8zuuJ4vQDkE/j4vpUGFUp2ay9x6LQWiZsCPwThmc9gii6FEQ2vnqz0Lo5xjwKlVWQlaPSwLtcxoC2TkUGZO+oDH0tZHtHjXUplerQAE+dw1mq9URzH7foavCCVH5txQHiIBvbhQE5cFAKSjF4z5Jk7ISrWcidjuNkRROmmNCnwaPAPHO/dgHRHw+izzSf/kMdqgW+WKuclIOG4jMJzG62kiGTIdBvdeX8RDxmZzPvnhiTUfo6+Hgx62wUBa5BGRaWIupEDYeiyLq1uowpKa/Xm9XGIqCEmUICvf69rNc9AGi4gpYZrJUo9D4Ai7jKK3EcAgT358AEZ+Ly1A/Ew1WJ9ZIWBPNEHfeYB5bywHNSyxIpeJjiIlHaS68AWF2A1U+F2E11OiIiN8YzpsCcfdpfipES/v7LI4QbiVlGYrU2QyIpScBCEcA/rmDYqDZKzoRD8QQpFa1UZkZhddLl1Y5g9us+g9rwgv1JDfgc1RPISGbwfjXWV2zdcjPV2xz6cgqxzBgnkm2gxklRvRtDLyX8MEnpH4H4QeZE0Tbf3AAYOTgeYwivG6GaezvMSCVIG6r7NbbGJoE4A6fHG7IcYi5T7M5iOd+1SuIPUmXZeg9h8hCWnBZsGVhm0t5mEkGFNX6YQjygR5TEYkQERCVZ/X8bDfSB47lTTjw1WdgBhj7OGOsw5Ymid0OIo+/AMdFrIpt/MEI2TfxAkzA7+laYEwid+pv9BA+cT77MpWntD7PaNTET3cXvQpoP445DD/SYMz6asIdA8Q3dy7gJMifYIAQbsIqAAEZx4LzFEqOAMq/r4sDpAkhOZ1UHU/BvumIy5thozZt/RMrwgnTfCs2R+keSKAZ5H8PrON8IVwkpgTwf3yG7hmw1bcLNZ1JFZvcscGDETlxfgfEBgvm0GYwhR/0HAifH1VBrDcj7ENsTaz5k4P35xCVKaHBKWtQbvUHa29lSbVEARa2UyJ0uyh2gqbpIQig+llR+DwEJvs15dx3H7T04IXBuRwGB45jfWaALVmH/HTEFpgWaRjDgPXluJJ5oZ7RNUbQsS7iCqIXcB+vwTJoVcbSeQ43A+55QvxcAqY2YnRlQg1JazD1PhbYrTuJp/sxRxhvY3pA8UeGQ3K61TGebAgXBZyARN1sz7+GHiJMHGGBI0O4k/DNoM06DKsTux2INl4OxyUM48qnhIp/r9cAOj9rAPHep2ApfXVD6fngYPeuQqznXMD9OhcihAGWoKxpW7MGchST/1vYjvGDNHQJ+IkCHjUELYyOBwyIcKQPWVHnbj4iv7H0gZM+HQ6MPRszSFuHeUI4cRZCWFOMITkdj8l3hfzD+dP66yCSHXAey3vlwL44BtLxwcF/pK1iY9Js/2Wk2L5Ygv1Ol4agAKlCT0aOqE+u2+gRwAhCcuPJ1SmTJmSgSNgxkVynb7lKK/qIP0cjR2o/SEQm4FiG4CbEpqbFGhbIgPWVmGxfCO91DrV6i70jD6yFI2QZ0m4cLpEKDeegxIgOsLetSOw0PAvQTTP2QfGU1qIAC9up78wMLVAMGnFIDc50ahSNQyZKt0C0Hndr3WaZ+sATrIgDu0uYmEDBMuxuXmwyxIuTORY7iKmmKOYOfosefbkP0wvm2TwJx+iDMY5X6dVikRBuWiaf8zRiu5uyACccf0iCi0P2HoVtkVNIwzrQTKdmQYlADa0AsxHABKQYUIDTVdTpI0YkNHE475NEFk4ZVpNl2BaEE/fCgDXZDME8PZ6WHjG4t0MEfAldLXAwuIt3wVGxKsN4k/2Fhsk7EWvw+EDEit1IYH6dj9UiAhbuIjRAhM2REzZaIpG1AjQ1ffLowlzI/g35jJQ1M95U9YHNvYpiwICrmGJ4E61CMF+x75TmIG6PhwHryzE1MACb2t/BN6Ofxo8KdsXiDTGKxmOAlrsbE+vVYj/ECLDe/Fz1AQzsE+cs0jjF75dBdWMj9Kih1VqxyKHTGKKIVhQ50geeo4bDO5zRYVzDuhur8AkgPhmcidvhGHQaPP5UFrjLPJYv8I1dncSr+LDABAMmGcXvgKZn4ooRZ9BwW2LYkun1nsOs+ynnZc7TZCghYiEfZtqWjPaDUFNDMF6IMMok3YMC1I3LhqqQL/GVFQOO9K9NCaWMqvKdWYX7EGs6HRZcS5YB23JYcDsdLIDa1OTBh9GkC02L74xjmGcM72w22oyFeKUW07EeZcL/LmspA2KzyyI3ToHWuRug22gbkD/5fQsLEUOn9EMON0zQ+06EPnCEtRwgLIeFcg3KJsq+sUXIDBd7hhwPcT2VY2NpnqmHwQSgSOys6XLuJmYosUfhqEsawwhoeyYM1QSlBktl6DK7/Tbv0wcaOeIG3AwQEEEXnL8MHNqwhLBxpkYOn6hCMDsbMgGSOOxR4F77uFghP+qtKI7nuYopIXz9jOiNoFgpVooVK8WUgvLvZkTMIhDiSuxywJs4QI7n2RBPz1vE2AD0v5cvcD39DUQRVxxDM8ZgazSQgfD/YRokGZJm5xudKipFtFux8M6Lx4JzF4H05INy4IQwJPe3L1/zzrnQ8KlOBCt8f++qr0h94ANcAAdO4HlCxJRulncuEWh2WxBuGsOEa8kyYFsOC1q/thaA/RLX8jT34xoFNsVBgASCMWhMwD0Ew9CSBpxmV3Xf6LxdENjCWIXcIuqlhcmSglkCe6S8oobuP0MBW7l2kdFAnWo4bKyPiUSG4hh9FVP68RHVppcq9rWTXFfwnTbEMLybB3N4HE2Ax7mMlyH4UgbWnjEGpU1FkkHyvG1qu1dVVcQ9qfAsOWMFM0DHpkPZo2WzsJ/aN5FzQir4Uwpgrcyjia89+f2iDhCFL8GB70ZQ9BNTUc0cXLEfBO6mAyQiGeqWypTZl6Q2QN989+NMHGMg3nMkHWPQuM7Rm8mf//eNh8o9yWQzywyqpif5IP88u60GEjUkpkrIJgU89oMi+N4xIH0UPyvL6FeYAsCPbs4Gwp3Hw4bZZDNiuA+PB91DHI2A+vkOH2oILRx5M6j2rNwJ776jN2WsUD3nsLyYzKJwlKxmrKFms+GH94dComabvhcpiAIoBEYxk30fdOrA4EfhwAn0AYhFNV2HIlb5XwhWtvYrGMBAKBMgE9K2qxXQNXyAZwCNypxyuouZWZFoc3H852HNRjwsM3WeHiyGC1eGPdTKRA1+QySjAASkI5iuoMyN/0bWR+HzsNzG8gDYUc1wV2zAJy+xIQnG7o1xoThRaYbUjRyp0p9fYDDFku5qzKxXUCWqIKYqCvvqkFoT/mlZu6EQDhz2TnlFDU5olRTsb5Ak4DxDjan3D1nqwEmfDof39Ul40c7aIJ4qQe77YEP8apo0A0pd+kOWwXZNIKe7ZZrY6BWITpM6FMhNqZGhCG602bAbLANyzQlrFIwYw30OFT0z2hIAWB02EcGB3Z1vlDOLAQzSz2E8G7KTl6k0g+PrL29OLnS+qRoTO6a8JtCRhtUCApPbev3cXbgzXKL2StlADf50XWXlN0QFT3HHvLnHUAeu53I4HMKZhIVYNDPc1V/+JvjgL5MouhvN4N6N3vJJhqwZZJXObsUzr9GgDAMALxhZpNEP9oBwKVf5sEf4hhK1YItvFGwOSBIpS69vizpif9hmwGnMBHY0szYY4LY0AIrXQuTMRStUTUNnFQ5DwTeBgr78dSVh3nXpE18499CBEkfYKxSga90CLFN7QX+ihlgte6F59QLT6SNPPntUB55hHzicByChF6KYSQ9hBHcySQugiag8hzEaqWsZp6/xYOwhfptAFownP45DQUEBCgoKUFBQSPTuA7EO897tTBOiKpJtkfVO+qiH4N7SPsYBkEuWmE1WQSEYmS2JpQhi+y0nnTp8IrHIgA09QjQzA9cI8oSuNkDHmu6BsF0eAWqAxKfT10JNqugy/OEvwMGrfAUT37T63IBkxjem74mI6nYd3Dyw2jMsSyG1ZjeyVpYlQV7V8pAFm5I60HssHN6/hBu9rA1G6J2NVkDWq7+Jy7gTjw3XcQW6GsBRYwYTOQJbFnMHSOLOi9wExhbWJ+H9vvPSmB12SvOnn80dWe0GtlpZHRSexVJZdMZ9v/iMnU4tDjAyM4YUweykWv176vCPkPjAgDnsbvRyJp4hYNRYzfp1Rj0LYULgcl3B3ugpdSYcLTEz8BkeAlYYM3S+gux7KCDCZmmsD64j3Ea6JbhpuumDWzh1K3CFV1q2cEKC6EGkezFesExlEUgXVTsd/GmskAvxEm3kBpXdZoS8gCSoIoo4nK+filqGK2PIzFMKAEMJ0385xGEp/DU9BX+PoxcmaNcyPI4VepPUloSiA4QtMnvQvIbi+uka0o5hhzAvzJsWhHNiJSylfdIAbaGHg/dSA6pBpCGduErjW+pWYgahQ52tydyLNx8UAFlcIu9JGHAR1dGKs6cwyLV5kgC5+/jDC/UY1IXoaeAwjrmYAYhbhvEWqPfkcWLQ1quw68RajuCUCed8lcXwtPV6qVSvw9Z3o+eouKB0bxsHqlQSQEP1SUYNFHcBi89wcXa5+ZD3ZtbFkfKileNIGMWREiLSAAs9nxk4Yhismedo8CJgtE/eFIg9hoFtzZbnxpt/VYEdAmHH4LSwXU7zG9ei5gAMpPZne8C6oDLDD+qgPpMa+MJwkG3lZ6uK0c7f0/WdvnppfgYH6i+DIXq9Axjmnkr0jYmgFyFMHLHn0az9BohLttR8ORrSBqE0moYSa74Ky3Pq5et4QucMSEHCyTCimrXMo4XBh2oK+kIlG+ghAyLlwKeGnksJKITtMrA1YtpJ2PJFH72fM4QzOHATtxE1lRZpHNPJyYPELRAGGxIbr1kqVuVyPU4fx1ySBqH1m/hiIAKmYXHK7T6RBtL3XqfBYWGbP+gND+hDWYQHi1cRW9CztWaHXOtQVgnQsqs7rSobfWaLZ//0f376gIRCgATVkfblnHjtNz752oQBHMx+ONHSJRTF1Ip6+VS4vukEDLN4BInQTNQRTnmhas0A4suPUkzzAOd3gilOI8vwg76dxbnL+zchXyeLcgh07zDkZVOhmhXShMEGPOWCE8jhUP8Clho+PDnV6zL8KVs7bNbZf5n/jOueY54bWxkBInSW2DkXovZmdIcXWWy0NF+I1xAJRb4I+/ZwEENmT2XCpSy0TshxtEOC+MQz5BI41BhzqPlODDVEVNbS9L69A0+v/eMI4xciKErSgjX7Xg/YVyXCoLZ8phfRs06I15IL0gpXUMDX8dHlhyj71DZ2G4nzFytEPpfDGam79seIkghMQpRhmTHI+B/eJwNmQmDJ1JzvFoq7EiDucuQ/Kzgrx5kDiDEGzIbYtjRrj3oGsRYFlAD2DkPmAv4CypAZlBl5sFUpJofyTA7IITNscK4wVsY04tFh0Uv+1XCvb91cu4tERcRAuGH4NPSGR7Cjow01iqkRkHImI/IMdW8gU86HcBOk9AJP7HAUy/HkTWJFLkPxXGwLc/ZHB6yJ0dbuLyJ8oiAsOMby8LTpU00MvlIRg7HkbC0qWWq6hVxSACuxQFOs8Q7PHfw9qlWEIxi/wLZ0lyZGoqPpQLxzqhx1DzKIIbO2yAYt8kkepEXxtWbFGuRAckspkTlMAOtkmOTUH8WAq5mLhbnRph8xCK/TcOmfhqHFvDh2EaUqbwiQDrNggGJymCnXNTWkhw38oKQwzFul0zZ0TpPr/eTPuk0kgq/OMY7g0x2IlGI09BCnwUCcNsqB63gMBhBS4yN5CKJ2ZXhnROaaatiWCvH7kQT1k9IRpWZCmID1Au7HLOxD4MBrEJBWTutiz8T7AlVmdPZx36GqzlS6AjAuILCI/+qpuhhS68d5oKcTqZEP5PRMguoKYCUSTYNvqsueOzNebhHBGueIEeb6G3MtRlGxKgVAAVAAFIvd7JrWRRTE1ElD0pkQ3RytS41k7O8pAf7miKwD7OQZ9kXE3DeRBenVjc2F6yNcBoD3KAOzwGCbA92rcrRoGzXPxfpAxQM0mk+5yR/XGg57RYoBUcPA+AkvOXYeJWho0H7JC3QtNThHp+STr4kheUVmwgUUhnnWHPb4jO97Ps4WjQLr99Vfdl3jDOIcEgAB9aMAxRQnyq8jZlbzhHhic7K0Xg9HsDwvgkEl9GuP+VsXczMMffOAePy9SoPgqxMBayNYZ1H/ELklzuQ8FHjj5wLTnAvRz4JJqxvo8Th1gxa5MoR8hJOvNJ8bLV1kwWXTigh4li1MGfbObZTtENmJPsoGjxxmeoY1AqjpiTcWQgEXY1oWDh3f6ypwmGzPEJ5z0R/e6z4YRB0kJJJXR8yZFEE6ieElamQBUcCBQyEoIxiI8HN5lVd5k87I8itbrstA3HTIA1TP4APM5gc9SMoD+70kzQP/NMuCCsLkMY6jrVmgVDeLlW1oFjbC5hf6EqYzWs1CkZCXQQiYtOD42sskmBBwKYuhtuVLG3qVBG2DJoZ2Kuln8WTDLHOW7Ur1xJ2vOuFqz5Z4/ocB2NdxM8YgZW5PCW8CMqfziDEQfZB2kXGO+plE0BYB0PEme7iil2jpdPup7lvsxurAqL4AJG8bsljwx4kSmOil3AUPcKTL/Q/E3qUQV/0LthsEyeolrmrApC0pRP4QtaazHixkUAIXicIFBKGcxzcz0MXQO+lTz2otNTQPLQSQL/8+tJagyrWJ7O+smf/rFpz/I9WaNp73agC4n0MwDays1GhKznwhXvwf8jzE/XCk5pkKl4wIQGxii19btKuHDvViYO25C9m03UPXTNy9aWYC0gDsQlalgmQenLlGs5lnN2q+6gSK02ULjl/fV8BqgHUIakWw6RQXilFylbKAkFwrTe0pyId5SaDhbiFeuisP+1uT5HlnRuD/rQbTWFUGpjx6iQyb6i8PiHwO/L3HCeeKAGirq86DXRH1MNDXuA6Y6lyIEDbNg5jZNKsuNh04RMSAKQsv7hw/ewlF3ZwNUSwb4nX5AE3M8w8tHBhPAkCKEL26drq4+2FX42wL8zSMAHdDVJtGV2BOE3wGog8SL7KRo2sm4bIM2vb/OAbiXkdgLgRE1LyKTmIw2VPmnjVBw4SQxOD/cWj89cW3vtWKO5GhyJPOdmMP1CuHbpyClgnhdI7bvPpbF/51KrHckkKSZXOG4P6tqzGLnGNKwQwg3riHMlXcD4dDaOfDdMrlEoEw0NN5Bphsx2MQc/poNJluoh+6ImWYS4FtIsivcFLjaFMkBPuHNTVqqL3xBWCJYVNGcTVmZJm2TfoYIrWxTNvSDlLLG7AQ3YYAbzhBZRJ5z5QG7WGfWGWDTFjXchkw6kyIjVD95TqWQAa3IMnd7C8MVckAdPXposZkVu1AEMiT6iESM0Yyhy6AS/UmFFv/dv9gAmpo+zGoB4eM5E7ASmwJQnNQolQ6Ze6E3g5S6tpY1mUM6FpewGcbSkyZ0gOsi4ARO0pIvbVXSTMQ4ByeI9TJu45ERO+KIGPHc4yTgvj0G2HCXq5JDzdjLvMCDcnIozXFFC8w1QNzBhQ/+gZ0yAV9UJ+yxBA/bTBpZAaDYQuw6Jnl7WXXCpL1j+NQhLNBYGUEB19/nrhe4q4ZpU76RSAcJ0bl6jqdQQzeIh03xJfov0R5Jg+GlO6azqBKgmYiMmVGUOPGydfcZC7TK0whaBFDKHBE3E+lo8sEdD+YbLDUEGGtRw3ry9mjkpVlCJNQQen0MSfslVtB4r8VjqYJRpG6k2q2qTwteunxzWihxMxosf4nLxdu5R4YcCMDiasQJ08M/zVpPs7tQFL/dn7YHmrW/0JSMOnGd9Yh25rypnLMCZhkbNBuibFyyJrGPJo3GAKIalqTQw9gMqZm+1RZj8rMIHQY1iWLrg0k9P09GIaphIhRIP1fAqZxp8NCQCP1UpnVThnQhg4wLXY7kHypI9IMBN6NTA7hn8OxPIInRcstBJBUuepNtnUstjaH8XkcmHbNHm7qRqQaORlm2mGw7FI697SJKMAi/7uWmZwAkkc3Bg58crYiRIka4vUFUbKyLJLFRvV3N/3XQhuwtpWJ2YT9n2bJihVkQC7psvhEkcMCoq2lVR/Edlw7N8vgK53NgOiFcPYFZGs/nVEMmVkg9BVUfJnl1mlXuJZf5UFaBUz8Ms9yARpk/9YPgoYxBt8RUz6DLQ9im7uK5Q6UZhpEaRVM9X68rlZQ+hCRbWF7UjB3ONrQCKwIU+TwYBAQULM9q5QyRmbmkQGUo9R7WhtIyAS/I+Kfz4+LsYwg/D2BhlopEP9OPQz2xyESwduyrX1o1YN7La52PtFJWHpCC2zT2cpWRIBCY4qy4WVOPCWWnRgGcJ7nMggTgtrTpOMof0cGErsA4odAyAwuMPkP8ovz0HJzcbFnCMQSzyBmL1AiKGeJP+cMCFZPgqoneJhGD6a672M7NhtNuli4bUQDxOTg2M1OAE3vwRJ01i45Z0hTM0/U4L9x7KkAYWQfw5W9cVlbtQHovYDIGr7vddhgPYd7eIVBkbzGxRCtnhxIDL6BB2lRXiQ1Iz8dMWAzgZj4IoTr1p4nKVvxHV0PJHxXD7C8/5KJxCcuiO6p0HlqP25hiZH1PAwxA+nT3/zrjxfp3M0niABwqt/gbCaM5/KnMWJEHjIrBQAucfjXftgPyjLEL+dXXQ+0fZDlrWhDuUj8+yHqrwPi/kG8xStMSkXSOHV/HZkAeN0b2tYXGe1pMY7YOouLKaZgsuXm849vEco+hy5sYZFWirWz0rGGCIJjy9lADhNsKAReUUN5Ji/ywcpMZOSsnIvdwnWtyH67a1jqoFURYBLZHuJ2Giu6nh4CAm/HL861Ps4Su7o9xHtqTz4RQFr3JYj4jZ0GgVnthHJ7JnbY4L+feZSClGx+R0yGxu9b6p600IeozuRj2Y7mypNvdqB752AeZ2BbOpNPqVixqbayNgUdOtXDBtYfTDKf9wC7o1Dzjecyzo8IQCr3XyYcB8E+TMTf1HcauaKSB8lDANn3SOgQojewTDeipv9xMURfVQwauyf9w7qGja5Ipz0Uip3f+Gpa4ooB4z5rrvU2VlWRC6Cyif7EFfGUhA5TJYJhwsoI1gElMdW/936mcSktGQ/mO/X2F5ZL1UhVgWUoIKSDsav2gRNANknBW1hyOHdjTUwt/v4WOgordG1ZKndZ3Zi1Au44L0h5HpTyYwr8qqPqYqBPlU1AWrcDRh2vXSAsehBUDHmegUusrk6reHzcBVReTW+n7UN+NxSQ/U7/crGjlvd5tkSA3X6i2H+Zy7ybYgwyZicuENqrjqoVwQBTQfpItzSLLVWkc7l8Nh6P11RWVja8RsyDORc/8AVY5wIzizTLU3X2cIihY8tpyIFPbqJWr1JDeaIQ8kLLzOAoeXr2963YhVAPngcCglLQqVLhAFW4n3M5B8/zFJSCdfXgwVNQUDD13pwQijjiDlwGFBCKbH0u9EAEwt0PL5lRambmlDWWmj73eiGgCAKYSC9oJupuo9J/RGWp3cZgQjotaC8kWFCvztKGvxsBZUH+xLc0ImKYaIi0lhrKh9oCWJlJCYDoIjp31LGHhO0Tymjv+CdHECmfbtCTmUPIh7P2pRZoO+HQsudRM42ZsYCaN3NqyShk9k0BxTV9lrtk5GmUeijFgVBFCRa0Ir1Fr5p7IVEQQ/n7+pPRxNAqJ0gANRxy7k1XsCGTCICYOourhtM0GZleh0hMe08j78nOIbOmNgfahhqgx6rU1jbKA0OHmtctm3pEpptJVc0jfncickfvXl31/fH3v7O2Ekt5NUhtfeWpXvrUCsi3HzCXbEQMtrZ2rSaGg3mXP3AnBVgZWCvhFx2+FEue/Pb7fojMf/H1srAtF8vm04Zl3miaFg5duNB/sLcY1cTQ+P1sAPn9+YM/2iiAlbo43dzzz4l4z0euhfsRstv7lxfO5je/p01+UmGMII3WPEvPVObBDUF5clNMzeqoRO7PbL8fWFRuUrkYR51d5jv/+vsnQ0hBFrz0OohDk7W2Pi+ketJsXghtuNL/lrNOWmKIjz3JWmJY/l1USgrDTCq8tZnbZ71fHgsJyPV9fzhPbT9jpuRMqzLkj67wgF3rDt0OC2So2fZIHdT/zBYTKV8o4GJMa+xqM+XP+LjHPiTTj6XPOhGRMPaZiSG127Jw7qvW4NJo8wfDJwaUt1lLDG9nQ3xWTzbMmP2SaNYPP3+vO/1g5TNHwUoGeW2y8S2pyroF3UO9KXLt3w/r1P7MYxzrWS3Bxf61EMmFnAwmHzf6yt22M6csu9Myuyqtos2/Ogr3vnFelByipg/d5lGDPTTOkpENs5G9EXruWs15V+qRve/Yjr/kZysgj0vJg5dNBLg4OLetW2LASMmzxNDtIS+yEvBW5Ngyhx6vljdOUg+GnWy0h2V2m+k76Atw9ffrKZBPBUyCeuXcjTEofpxPnumXk/HUQ8Qe55xsQG6yU/v7rLu8ri6Rw0hoLDHEbzxZ8mS8xFLH66s63O4WuzvxYLmFJZk911mf53Xh8i1bgrOS29LsgHqwoXHSpJZ0kOVE+tZ62P2JB7ts80IWLaFtPQmuP9YMEDlsyYVtlhjiQ7/lClYGQQmKi3AlHqx2ahKdGw6EbPgK91UGEj+gN7EK1vjU7BsPHB1lJHgVgsT7Ew+unY7Evu0+04pg3WfHnoQeLj0VUYMIq8LS8ND2vqvCdsBcNOmlO/EQ0oI03v3SPU8r6PQACqIvGXrbPq+uqel+2C9dWoJXAcX6yLUtLxsT6wplLmxmMqBu4H57haeB/MaAvKjqBvJvk3DSQt02vB17Q3TSBJ+Iuw9OmQs/jDuy6kHhWOs+vNdd/hnp9Lk+z1Krvebz5IKVVDtHU0SDx7bl7/AO3bvaGkFXiqDzTV6FKEKZq+A/yO1zLIGa+7h6pz++QxYgXfSx2yrUWIVl4QKQQ7IaLLka/m162JEc2K6KSUscWsoQULaR+EDcElfNnSh75fhXk0X7pN3TQKVd1xGw0xYA6U29EED9NXPhIJENVgZjS7Cvx1Ng214ZsDj92pHpn7hzuju6vNscta96+r8jnd3nwkqVIGq2/j9LgpFFwEga8/7sFEs82HzDhQz2rmHXtNc0kyfPTRdblvaG/76LI5EsXjLsb3xLhZg1+4W7F/1kIa0BGQjazXQ9kHjw5V6+3d+qwvLhjoZdw72mXcAa11h78J7qvcpHAqljHDDsM2Th8qBt1+wf7mlx4KIuqwqsSc0qzedHnHIzmXjk71uPmT7hLTI09qfbg9ulm65uCOaSV1rthpit+k8cZOyX+tPIxtnKFJsnudoBF97JSZbUn/k6y2nPLfcWDs6fYSGNvxi47rPFLfF0/p/3zyXaLxSQD3uEXeHa0k1Vu9DfPXPXBSLlVB6e51E6ZQiAxOHf58S596fAMqBMBzixmiM4eHdxbljIQ4EfrtBpZsKferAH+kbEJTGe8lZQQNvUxzJHO4WdoHcRDROr4gr96i2w6dlBubP6rN/3J9WOBumv8752/AN24gBhbKHYEXVSOPtbiFCOOOouMvX4HOd/brB6Wei8qnBfvVEDV3bw7CDe0XDhKuZWgfJrOrf1iceF1UsLnyWfiz758jGxXmTrA87VIM6Q7gj9y+Z1ds/u6n6vPUykH4++yqn7/OSEMB+ZhDPQIjaWHA8L9+xOvrIloC/ibHec6RGef1hxhhmzAqvPeBxY8c//a0+UguBO3r3ynvNgwf9TbPmz/Qwx3hYKZ/dKbB3uf/L7+SdCEsoQFn385XVy7GXtj7HLn694hhc/21ps95wth50rJ74W92N00EmitWWU+NesqxUkutf5otPqX+wIH/btLYSlo1Pst+rxmkbRA14KQqK0s54+4xhteiH7yu+IWRXR/JaUlk2FfZWMIdJUL3rqKBrsz6goC4mhtD2LLdVKjjlTN7sOOfpmylLTI795S56JqnniD1i/A7PeffFVIPLlCzaETUQA4W/r4uo8lxGBP+BZjkBvoczK6BNhaL8lqOVbq0cbrMAfkH4S8yvF1U8m4QX2AwLAlFZeCax/bQ+jFNezZsmBy9lxZhaM0dxtqSpgB6Drbv1r//8/1zY14kj8Tpx6RZgEhSwIKRMRIFh1DkHEgQZJdPMW355yWNp62JOvEzgMYYYvIEytYAcw9xo2lCNkc+QIYY/x/2P8/xj/l/u/3P/l/i/3f7n/y/1f7v9y/5f7v9z/5f4v93+5/8v9X+7/cv+X+39XwQ4A;" vertex="1" parent="1">
          <mxGeometry x="64.70000000000002" y="120.25" width="100" height="30.5" as="geometry" />
        </mxCell>
        <mxCell id="EMlEh1vvEXm4IZdUszmN-55" value="" style="shape=image;verticalLabelPosition=bottom;labelBackgroundColor=default;verticalAlign=top;aspect=fixed;imageAspect=0;image=https://www.svgrepo.com/show/303231/docker-logo.svg;" vertex="1" parent="1">
          <mxGeometry x="94.99999999999999" y="145.5" width="40" height="40" as="geometry" />
        </mxCell>
        <mxCell id="EMlEh1vvEXm4IZdUszmN-57" value="Orchestration" style="text;html=1;strokeColor=none;fillColor=none;align=left;verticalAlign=top;whiteSpace=wrap;rounded=0;dashed=1;sketch=1;strokeWidth=1;fontSize=15;labelPosition=center;verticalLabelPosition=middle;fontStyle=1;spacingLeft=5;" vertex="1" parent="1">
          <mxGeometry x="60" y="80" width="109.4" height="30" as="geometry" />
        </mxCell>
        <mxCell id="EMlEh1vvEXm4IZdUszmN-59" value="" style="strokeWidth=2;html=1;shape=mxgraph.flowchart.database;sketch=1;fontSize=19;fillColor=#fff2cc;strokeColor=#d6b656;aspect=fixed;" vertex="1" parent="1">
          <mxGeometry x="565" y="240" width="35" height="35" as="geometry" />
        </mxCell>
        <mxCell id="EMlEh1vvEXm4IZdUszmN-60" value="ConfigService" style="shape=module;align=left;spacingLeft=20;align=center;verticalAlign=middle;fontSize=14;sketch=1;fillColor=#f8cecc;strokeColor=#b85450;fontStyle=1;" vertex="1" parent="1">
          <mxGeometry x="654.25" y="162.5" width="130" height="50" as="geometry" />
        </mxCell>
        <mxCell id="EMlEh1vvEXm4IZdUszmN-61" value="" style="image;sketch=0;aspect=fixed;html=1;points=[];align=center;fontSize=12;image=img/lib/mscae/Cache_Redis_Product.svg;" vertex="1" parent="1">
          <mxGeometry x="699.25" y="241.39999999999998" width="40" height="33.6" as="geometry" />
        </mxCell>
        <mxCell id="EMlEh1vvEXm4IZdUszmN-62" value="replenishment/request" style="sketch=0;outlineConnect=0;fontColor=#232F3E;gradientColor=none;fillColor=#00a7b5;strokeColor=none;dashed=0;verticalLabelPosition=bottom;verticalAlign=top;align=center;html=1;fontSize=12;fontStyle=0;aspect=fixed;pointerEvents=1;shape=mxgraph.aws4.topic_2;" vertex="1" parent="1">
          <mxGeometry x="278.75" y="339.38" width="22.5" height="33.12" as="geometry" />
        </mxCell>
        <mxCell id="EMlEh1vvEXm4IZdUszmN-63" value="ReplenishmentService" style="shape=module;align=left;spacingLeft=20;align=center;verticalAlign=middle;fontSize=14;sketch=1;fillColor=#e1d5e7;strokeColor=#9673a6;fontStyle=1;" vertex="1" parent="1">
          <mxGeometry x="420" y="287.5" width="180" height="50" as="geometry" />
        </mxCell>
        <mxCell id="EMlEh1vvEXm4IZdUszmN-64" value="replenishment/confirmation" style="sketch=0;outlineConnect=0;fontColor=#232F3E;gradientColor=none;fillColor=#00a7b5;strokeColor=none;dashed=0;verticalLabelPosition=bottom;verticalAlign=top;align=center;html=1;fontSize=12;fontStyle=0;aspect=fixed;pointerEvents=1;shape=mxgraph.aws4.topic_2;" vertex="1" parent="1">
          <mxGeometry x="278.75000000000006" y="470" width="22.5" height="33.12" as="geometry" />
        </mxCell>
        <mxCell id="EMlEh1vvEXm4IZdUszmN-66" value="SMSNotificationService" style="shape=module;align=left;spacingLeft=20;align=center;verticalAlign=middle;fontSize=14;sketch=1;fillColor=#dae8fc;strokeColor=#6c8ebf;fontStyle=1;" vertex="1" parent="1">
          <mxGeometry x="420" y="432.5" width="180" height="50" as="geometry" />
        </mxCell>
        <mxCell id="EMlEh1vvEXm4IZdUszmN-72" value="IoT" style="text;html=1;strokeColor=none;fillColor=none;align=left;verticalAlign=top;whiteSpace=wrap;rounded=0;dashed=1;sketch=1;strokeWidth=1;fontSize=15;labelPosition=center;verticalLabelPosition=middle;fontStyle=1;spacingLeft=5;" vertex="1" parent="1">
          <mxGeometry x="60" y="202.5" width="40" height="30" as="geometry" />
        </mxCell>
        <mxCell id="EMlEh1vvEXm4IZdUszmN-74" value="" style="group" vertex="1" connectable="0" parent="1">
          <mxGeometry x="64" y="330" width="65" height="43.69999999999999" as="geometry" />
        </mxCell>
        <mxCell id="EMlEh1vvEXm4IZdUszmN-69" value="" style="dashed=0;outlineConnect=0;html=1;align=center;labelPosition=center;verticalLabelPosition=bottom;verticalAlign=top;shape=mxgraph.weblogos.arduino;fillColor=#36868D;strokeColor=none;aspect=fixed;" vertex="1" parent="EMlEh1vvEXm4IZdUszmN-74">
          <mxGeometry x="6" width="50" height="23.75" as="geometry" />
        </mxCell>
        <mxCell id="EMlEh1vvEXm4IZdUszmN-8" value="ARDUINO" style="text;align=center;verticalAlign=middle;rounded=0;fontSize=13;fontStyle=1;fontColor=#36868d;aspect=fixed;" vertex="1" parent="EMlEh1vvEXm4IZdUszmN-74">
          <mxGeometry y="23.869999999999976" width="65" height="19.83" as="geometry" />
        </mxCell>
        <mxCell id="EMlEh1vvEXm4IZdUszmN-75" value="" style="endArrow=block;html=1;rounded=0;endFill=1;edgeStyle=orthogonalEdgeStyle;" edge="1" parent="1" source="EMlEh1vvEXm4IZdUszmN-15" target="EMlEh1vvEXm4IZdUszmN-48">
          <mxGeometry width="50" height="50" relative="1" as="geometry">
            <mxPoint x="330" y="332.5" as="sourcePoint" />
            <mxPoint x="380" y="282.5" as="targetPoint" />
          </mxGeometry>
        </mxCell>
        <mxCell id="EMlEh1vvEXm4IZdUszmN-76" value="" style="endArrow=block;html=1;rounded=0;endFill=1;edgeStyle=orthogonalEdgeStyle;" edge="1" parent="1" source="EMlEh1vvEXm4IZdUszmN-48" target="EMlEh1vvEXm4IZdUszmN-16">
          <mxGeometry width="50" height="50" relative="1" as="geometry">
            <mxPoint x="353" y="149.5" as="sourcePoint" />
            <mxPoint x="524" y="182.5" as="targetPoint" />
          </mxGeometry>
        </mxCell>
        <mxCell id="EMlEh1vvEXm4IZdUszmN-77" value="" style="endArrow=block;html=1;rounded=0;endFill=1;edgeStyle=orthogonalEdgeStyle;" edge="1" parent="1" source="EMlEh1vvEXm4IZdUszmN-16" target="EMlEh1vvEXm4IZdUszmN-63">
          <mxGeometry width="50" height="50" relative="1" as="geometry">
            <mxPoint x="452" y="207.5" as="sourcePoint" />
            <mxPoint x="341" y="232.5" as="targetPoint" />
          </mxGeometry>
        </mxCell>
        <mxCell id="EMlEh1vvEXm4IZdUszmN-78" value="" style="endArrow=block;html=1;rounded=0;endFill=1;edgeStyle=orthogonalEdgeStyle;" edge="1" parent="1" source="EMlEh1vvEXm4IZdUszmN-63" target="EMlEh1vvEXm4IZdUszmN-62">
          <mxGeometry width="50" height="50" relative="1" as="geometry">
            <mxPoint x="353" y="249.5" as="sourcePoint" />
            <mxPoint x="541" y="282.5" as="targetPoint" />
          </mxGeometry>
        </mxCell>
        <mxCell id="EMlEh1vvEXm4IZdUszmN-79" value="" style="endArrow=block;html=1;rounded=0;endFill=1;edgeStyle=orthogonalEdgeStyle;" edge="1" parent="1" source="EMlEh1vvEXm4IZdUszmN-62" target="EMlEh1vvEXm4IZdUszmN-50">
          <mxGeometry width="50" height="50" relative="1" as="geometry">
            <mxPoint x="451" y="307.5" as="sourcePoint" />
            <mxPoint x="341" y="343.5" as="targetPoint" />
          </mxGeometry>
        </mxCell>
        <mxCell id="EMlEh1vvEXm4IZdUszmN-80" value="" style="endArrow=block;html=1;rounded=0;endFill=1;edgeStyle=orthogonalEdgeStyle;" edge="1" parent="1" source="EMlEh1vvEXm4IZdUszmN-50" target="EMlEh1vvEXm4IZdUszmN-64">
          <mxGeometry width="50" height="50" relative="1" as="geometry">
            <mxPoint x="353" y="349.5" as="sourcePoint" />
            <mxPoint x="526" y="376.5" as="targetPoint" />
          </mxGeometry>
        </mxCell>
        <mxCell id="EMlEh1vvEXm4IZdUszmN-81" value="" style="endArrow=block;html=1;rounded=0;endFill=1;edgeStyle=elbowEdgeStyle;" edge="1" parent="1" source="EMlEh1vvEXm4IZdUszmN-64" target="EMlEh1vvEXm4IZdUszmN-66">
          <mxGeometry width="50" height="50" relative="1" as="geometry">
            <mxPoint x="451" y="401.5" as="sourcePoint" />
            <mxPoint x="341" y="483.5" as="targetPoint" />
          </mxGeometry>
        </mxCell>
        <mxCell id="EMlEh1vvEXm4IZdUszmN-82" value="" style="endArrow=block;html=1;rounded=0;endFill=1;edgeStyle=orthogonalEdgeStyle;" edge="1" parent="1" source="EMlEh1vvEXm4IZdUszmN-64" target="EMlEh1vvEXm4IZdUszmN-49">
          <mxGeometry width="50" height="50" relative="1" as="geometry">
            <mxPoint x="353" y="500.5" as="sourcePoint" />
            <mxPoint x="451" y="467.5" as="targetPoint" />
          </mxGeometry>
        </mxCell>
        <mxCell id="EMlEh1vvEXm4IZdUszmN-85" value="Distributed System" style="text;html=1;strokeColor=none;fillColor=none;align=left;verticalAlign=top;whiteSpace=wrap;rounded=0;dashed=1;sketch=1;strokeWidth=1;fontSize=15;labelPosition=center;verticalLabelPosition=middle;fontStyle=1;spacingLeft=5;" vertex="1" parent="1">
          <mxGeometry x="180" y="80" width="160" height="30" as="geometry" />
        </mxCell>
        <mxCell id="EMlEh1vvEXm4IZdUszmN-86" value="MOM" style="text;html=1;strokeColor=none;fillColor=none;align=left;verticalAlign=top;whiteSpace=wrap;rounded=0;dashed=1;sketch=1;strokeWidth=1;fontSize=15;labelPosition=center;verticalLabelPosition=middle;fontStyle=1;spacingLeft=5;" vertex="1" parent="1">
          <mxGeometry x="190" y="120.75" width="50" height="30" as="geometry" />
        </mxCell>
        <mxCell id="EMlEh1vvEXm4IZdUszmN-87" value="" style="endArrow=block;html=1;rounded=0;endFill=1;edgeStyle=elbowEdgeStyle;" edge="1" parent="1" source="EMlEh1vvEXm4IZdUszmN-48" target="EMlEh1vvEXm4IZdUszmN-59">
          <mxGeometry width="50" height="50" relative="1" as="geometry">
            <mxPoint x="322" y="256" as="sourcePoint" />
            <mxPoint x="539" y="299" as="targetPoint" />
          </mxGeometry>
        </mxCell>
        <mxCell id="EMlEh1vvEXm4IZdUszmN-88" value="" style="endArrow=block;html=1;rounded=0;endFill=1;edgeStyle=orthogonalEdgeStyle;" edge="1" parent="1" source="EMlEh1vvEXm4IZdUszmN-48" target="EMlEh1vvEXm4IZdUszmN-60">
          <mxGeometry width="50" height="50" relative="1" as="geometry">
            <mxPoint x="322" y="156" as="sourcePoint" />
            <mxPoint x="543" y="173" as="targetPoint" />
          </mxGeometry>
        </mxCell>
        <mxCell id="EMlEh1vvEXm4IZdUszmN-89" value="" style="endArrow=block;html=1;rounded=0;endFill=1;edgeStyle=elbowEdgeStyle;" edge="1" parent="1" source="EMlEh1vvEXm4IZdUszmN-60" target="EMlEh1vvEXm4IZdUszmN-61">
          <mxGeometry width="50" height="50" relative="1" as="geometry">
            <mxPoint x="588" y="223" as="sourcePoint" />
            <mxPoint x="587" y="243" as="targetPoint" />
          </mxGeometry>
        </mxCell>
        <mxCell id="EMlEh1vvEXm4IZdUszmN-93" value="" style="endArrow=block;html=1;rounded=0;endFill=1;edgeStyle=orthogonalEdgeStyle;" edge="1" parent="1" source="EMlEh1vvEXm4IZdUszmN-9" target="EMlEh1vvEXm4IZdUszmN-11">
          <mxGeometry width="50" height="50" relative="1" as="geometry">
            <mxPoint x="322" y="256" as="sourcePoint" />
            <mxPoint x="539" y="299" as="targetPoint" />
          </mxGeometry>
        </mxCell>
        <mxCell id="EMlEh1vvEXm4IZdUszmN-94" value="" style="endArrow=block;html=1;rounded=0;endFill=1;edgeStyle=orthogonalEdgeStyle;" edge="1" parent="1" source="EMlEh1vvEXm4IZdUszmN-69" target="EMlEh1vvEXm4IZdUszmN-11">
          <mxGeometry width="50" height="50" relative="1" as="geometry">
            <mxPoint x="150" y="298" as="sourcePoint" />
            <mxPoint x="213" y="328" as="targetPoint" />
          </mxGeometry>
        </mxCell>
        <mxCell id="EMlEh1vvEXm4IZdUszmN-95" value="" style="endArrow=block;html=1;rounded=0;endFill=1;edgeStyle=orthogonalEdgeStyle;exitX=0.25;exitY=1;exitDx=0;exitDy=0;entryX=0;entryY=0.5;entryDx=0;entryDy=0;" edge="1" parent="1" source="EMlEh1vvEXm4IZdUszmN-8" target="EMlEh1vvEXm4IZdUszmN-5">
          <mxGeometry width="50" height="50" relative="1" as="geometry">
            <mxPoint x="130" y="298" as="sourcePoint" />
            <mxPoint x="213" y="328" as="targetPoint" />
          </mxGeometry>
        </mxCell>
        <mxCell id="EMlEh1vvEXm4IZdUszmN-96" value="" style="endArrow=block;html=1;rounded=0;endFill=1;edgeStyle=orthogonalEdgeStyle;exitX=0.25;exitY=1;exitDx=0;exitDy=0;entryX=0;entryY=0.5;entryDx=0;entryDy=0;" edge="1" parent="1" source="EMlEh1vvEXm4IZdUszmN-8" target="EMlEh1vvEXm4IZdUszmN-10">
          <mxGeometry width="50" height="50" relative="1" as="geometry">
            <mxPoint x="90" y="384" as="sourcePoint" />
            <mxPoint x="105" y="420" as="targetPoint" />
          </mxGeometry>
        </mxCell>
      </root>
    </mxGraphModel>
  </diagram>
</mxfile>
